<svg fill="#1e55b3" height="25px" width="25px" version="1.1" id="Capa_1" xmlns="http://www.w3.org/2000/svg"
    xmlns:xlink="http://www.w3.org/1999/xlink" viewBox="0 0 403.879 403.879" xml:space="preserve"
    transform="matrix(1, 0, 0, 1, 0, 0)">
    <g id="SVGRepo_bgCarrier" stroke-width="0"></g>
    <g id="SVGRepo_tracerCarrier" stroke-linecap="round" stroke-linejoin="round"></g>
    <g id="SVGRepo_iconCarrier">
        <g>
            <path
                d="M96.738,204.43c11.033,30.93,34.982,55.334,65.704,66.955c0.699,0.264,1.416,0.391,2.122,0.391 c2.423,0,4.705-1.478,5.613-3.879c1.172-3.1-0.39-6.563-3.489-7.736c-27.424-10.373-48.8-32.156-58.647-59.762 c-1.114-3.123-4.548-4.75-7.667-3.637C97.253,197.875,95.625,201.309,96.738,204.43z">
            </path>
            <path
                d="M350.772,131.182H53.107c-3.313,0-6,2.686-6,6v30.1c0,3.313,2.687,6,6,6H66.56c2.058,46.984,28.149,87.83,66.259,110.521 l-30.082,112.523c-0.855,3.201,1.046,6.49,4.247,7.348c0.52,0.139,1.041,0.205,1.554,0.205c2.65,0,5.075-1.771,5.793-4.453 l5.285-19.77h140.258c4.058,13.973,16.965,24.221,32.229,24.221c18.506,0,33.561-15.057,33.561-33.563 c0-18.506-15.056-33.561-33.561-33.561c-0.96,0-1.907,0.049-2.847,0.129l-15.825-54.523 c36.817-22.957,61.874-63.074,63.889-109.078h13.452c3.313,0,6-2.688,6-6v-30.1C356.772,133.867,354.085,131.182,350.772,131.182z M313.664,370.315c0,11.889-9.673,21.563-21.561,21.563s-21.561-9.674-21.561-21.563c0-11.889,9.673-21.561,21.561-21.561 S313.664,358.426,313.664,370.315z M277.67,340.02c-10.543,5.045-18.052,15.434-19.014,27.637H122.824l20.86-78.031 c17.657,8.441,37.413,13.176,58.255,13.176c21.829,0,42.465-5.195,60.748-14.402L277.67,340.02z M201.939,290.801 c-66.097,0-120.234-52.188-123.376-117.52h246.752C322.174,238.613,268.036,290.801,201.939,290.801z">
            </path>
            <path
                d="M292.103,383.414c7.224,0,13.1-5.875,13.1-13.1c0-7.223-5.876-13.1-13.1-13.1s-13.1,5.877-13.1,13.1 C279.003,377.539,284.879,383.414,292.103,383.414z">
            </path>
            <path
                d="M85.582,76.266c0,10.617,3.854,16.33,6.949,20.92c2.736,4.059,4.898,7.264,4.898,14.213c0,3.314,2.687,6,6,6 c3.313,0,6-2.686,6-6c0-10.617-3.854-16.33-6.949-20.922c-2.737-4.057-4.898-7.262-4.898-14.211c0-6.949,2.161-10.154,4.898-14.213 c3.096-4.592,6.949-10.305,6.949-20.924c0-10.615-3.854-16.328-6.949-20.918C99.743,16.154,97.582,12.949,97.582,6 c0-3.313-2.687-6-6-6s-6,2.688-6,6c0,10.617,3.854,16.33,6.95,20.922c2.736,4.057,4.897,7.26,4.897,14.207 c0,6.951-2.162,10.156-4.898,14.215C89.436,59.934,85.582,65.646,85.582,76.266z">
            </path>
            <path
                d="M137.799,76.266c0,10.617,3.854,16.33,6.949,20.92c2.736,4.059,4.898,7.264,4.898,14.213c0,3.314,2.687,6,6,6 c3.314,0,6-2.686,6-6c0-10.617-3.854-16.33-6.949-20.922c-2.737-4.057-4.898-7.262-4.898-14.211c0-6.949,2.161-10.154,4.898-14.213 c3.096-4.592,6.949-10.305,6.949-20.924c0-10.615-3.854-16.328-6.949-20.918c-2.737-4.057-4.898-7.262-4.898-14.211 c0-3.313-2.687-6-6-6c-3.314,0-6,2.688-6,6c0,10.617,3.854,16.33,6.95,20.922c2.736,4.057,4.897,7.26,4.897,14.207 c0,6.951-2.162,10.156-4.898,14.215C141.652,59.934,137.799,65.646,137.799,76.266z">
            </path>
            <path
                d="M190.016,76.266c0,10.617,3.854,16.33,6.949,20.92c2.736,4.059,4.898,7.264,4.898,14.213c0,3.314,2.687,6,6,6 c3.314,0,6-2.686,6-6c0-10.617-3.854-16.33-6.949-20.922c-2.737-4.057-4.898-7.262-4.898-14.211c0-6.949,2.161-10.154,4.898-14.213 c3.096-4.592,6.949-10.305,6.949-20.924c0-10.615-3.854-16.328-6.949-20.918c-2.737-4.057-4.898-7.262-4.898-14.211 c0-3.313-2.687-6-6-6c-3.314,0-6,2.688-6,6c0,10.617,3.854,16.33,6.95,20.922c2.736,4.057,4.897,7.26,4.897,14.207 c0,6.951-2.162,10.156-4.898,14.215C193.869,59.934,190.016,65.646,190.016,76.266z">
            </path>
            <path
                d="M294.449,76.264c0,10.617,3.853,16.33,6.949,20.922c2.736,4.059,4.898,7.264,4.898,14.213c0,3.314,2.686,6,6,6s6-2.686,6-6 c0-10.617-3.854-16.332-6.949-20.922c-2.737-4.059-4.898-7.264-4.898-14.213c0-6.949,2.161-10.154,4.898-14.213 c3.096-4.59,6.949-10.303,6.949-20.922c0-10.615-3.854-16.328-6.949-20.918c-2.737-4.057-4.898-7.262-4.898-14.211 c0-3.313-2.687-6-6-6c-3.314,0-6,2.688-6,6c0,10.617,3.853,16.33,6.95,20.922c2.736,4.057,4.897,7.26,4.897,14.207 c0,6.949-2.161,10.154-4.898,14.213C298.303,59.934,294.449,65.646,294.449,76.264z">
            </path>
            <path
                d="M242.232,76.266c0,10.617,3.854,16.33,6.949,20.92c2.736,4.059,4.898,7.264,4.898,14.213c0,3.314,2.687,6,6,6 c3.313,0,6-2.686,6-6c0-10.617-3.854-16.33-6.949-20.922c-2.737-4.057-4.898-7.262-4.898-14.211c0-6.949,2.161-10.154,4.898-14.213 c3.096-4.592,6.949-10.305,6.949-20.924c0-10.615-3.854-16.328-6.949-20.918c-2.737-4.057-4.898-7.262-4.898-14.211 c0-3.313-2.687-6-6-6c-3.313,0-6,2.688-6,6c0,10.617,3.854,16.33,6.95,20.922c2.736,4.057,4.897,7.26,4.897,14.207 c0,6.951-2.162,10.156-4.898,14.215C246.086,59.934,242.232,65.646,242.232,76.266z">
            </path>
        </g>
    </g>
</svg>