<svg xmlns="http://www.w3.org/2000/svg" version="1.1" xmlns:xlink="http://www.w3.org/1999/xlink"
    xmlns:svgjs="http://svgjs.dev/svgjs" width="2000" height="2000" viewBox="0 0 300 300">
    <g transform="matrix(1,0,0,1,-1.095808383233475,-1.095808383233475)"><svg viewBox="0 0 334 334"
            data-background-color="#ffffff" preserveAspectRatio="xMidYMid meet" height="300" width="300"
            xmlns="http://www.w3.org/2000/svg" xmlns:xlink="http://www.w3.org/1999/xlink">
            <g id="tight-bounds" transform="matrix(1,0,0,1,0.18299999999999272,0.18299999999999272)"><svg
                    viewBox="0 0 333.6336410249246 333.6336410249246" height="333.6336410249246"
                    width="333.6336410249246">
                    <g><svg></svg></g>
                    <g><svg viewBox="0 0 333.6336410249246 333.6336410249246" height="333.6336410249246"
                            width="333.6336410249246">
                            <g>
                                <path
                                    d="M0 166.817c0-92.13 74.686-166.817 166.817-166.817 92.13 0 166.817 74.686 166.817 166.817 0 92.13-74.686 166.817-166.817 166.817-92.13 0-166.817-74.686-166.817-166.817zM166.817 332.846c91.696 0 166.03-74.334 166.029-166.029 0-91.696-74.334-166.03-166.029-166.03-91.696 0-166.03 74.334-166.03 166.03 0 91.696 74.334 166.03 166.03 166.029z"
                                    data-fill-palette-color="tertiary" fill="#1e55b3" stroke="transparent"></path>
                                <ellipse rx="160.1441476919638" ry="160.1441476919638" cx="166.8168205124623"
                                    cy="166.8168205124623" fill="#1e55b3" stroke="transparent" stroke-width="0"
                                    fill-opacity="1" data-fill-palette-color="tertiary"></ellipse>
                            </g>
                            <g transform="matrix(1,0,0,1,71.1333791194973,71.1333791194973)"><svg
                                    viewBox="0 0 191.36688278593 191.36688278593" height="191.36688278593"
                                    width="191.36688278593">
                                    <g><svg viewBox="0 0 191.36688278593 191.36688278593" height="191.36688278593"
                                            width="191.36688278593">
                                            <g><svg viewBox="0 0 191.36688278593 191.36688278593"
                                                    height="191.36688278593" width="191.36688278593">
                                                    <g id="textblocktransform"><svg
                                                            viewBox="0 0 191.36688278593 191.36688278593"
                                                            height="191.36688278593" width="191.36688278593"
                                                            id="textblock">
                                                            <g><svg viewBox="0 0 191.36688278593 191.36688278593"
                                                                    height="191.36688278593" width="191.36688278593">
                                                                    <g
                                                                        transform="matrix(1,0,0,1,64.10951660672379,64.10951660672379)">
                                                                        <svg viewBox="0 0 63.14784957248242 63.14784957248242"
                                                                            height="63.14784957248242"
                                                                            width="63.14784957248242">
                                                                            <g id="icon-0"><svg
                                                                                    xmlns="http://www.w3.org/2000/svg"
                                                                                    xmlns:xlink="http://www.w3.org/1999/xlink"
                                                                                    version="1.1" x="0" y="0"
                                                                                    viewBox="0 0 64 64"
                                                                                    style="enable-background:new 0 0 64 64;"
                                                                                    xml:space="preserve"
                                                                                    height="63.14784957248242"
                                                                                    width="63.14784957248242"
                                                                                    class="icon-jxe-0"
                                                                                    data-fill-palette-color="quaternary"
                                                                                    id="jxe-0">
                                                                                    <rect y="15" width="64" height="2"
                                                                                        fill="#ffffff"
                                                                                        data-fill-palette-color="quaternary">
                                                                                    </rect>
                                                                                    <path
                                                                                        d="M3 5H5C5 4.449 5.449 4 6 4V2C5.229 2 4.532 2.3 4 2.78A2.98 2.98 0 0 0 2 2V4C2.551 4 3 4.449 3 5"
                                                                                        fill="#ffffff"
                                                                                        data-fill-palette-color="quaternary">
                                                                                    </path>
                                                                                    <path
                                                                                        d="M9 5H11C11 4.449 11.449 4 12 4V2C11.229 2 10.532 2.3 10 2.78A2.98 2.98 0 0 0 8 2V4C8.551 4 9 4.449 9 5"
                                                                                        fill="#ffffff"
                                                                                        data-fill-palette-color="quaternary">
                                                                                    </path>
                                                                                    <path
                                                                                        d="M15 5H17C17 4.449 17.449 4 18 4V2C17.229 2 16.532 2.3 16 2.78A2.98 2.98 0 0 0 14 2V4C14.551 4 15 4.449 15 5"
                                                                                        fill="#ffffff"
                                                                                        data-fill-palette-color="quaternary">
                                                                                    </path>
                                                                                    <path
                                                                                        d="M5 7V9C5.551 9 6 9.449 6 10H8C8 9.449 8.449 9 9 9V7C8.229 7 7.532 7.3 7 7.78A2.98 2.98 0 0 0 5 7"
                                                                                        fill="#ffffff"
                                                                                        data-fill-palette-color="quaternary">
                                                                                    </path>
                                                                                    <path
                                                                                        d="M11 7V9C11.551 9 12 9.449 12 10H14C14 9.449 14.449 9 15 9V7C14.229 7 13.532 7.3 13 7.78A2.98 2.98 0 0 0 11 7"
                                                                                        fill="#ffffff"
                                                                                        data-fill-palette-color="quaternary">
                                                                                    </path>
                                                                                    <path
                                                                                        d="M17 7V9C17.551 9 18 9.449 18 10H20C20 9.449 20.449 9 21 9V7C20.229 7 19.532 7.3 19 7.78A2.98 2.98 0 0 0 17 7"
                                                                                        fill="#ffffff"
                                                                                        data-fill-palette-color="quaternary">
                                                                                    </path>
                                                                                    <path
                                                                                        d="M21 5H23C23 4.449 23.449 4 24 4V2C23.229 2 22.532 2.3 22 2.78A2.98 2.98 0 0 0 20 2V4C20.551 4 21 4.449 21 5"
                                                                                        fill="#ffffff"
                                                                                        data-fill-palette-color="quaternary">
                                                                                    </path>
                                                                                    <path
                                                                                        d="M41 5H43C43 4.449 43.449 4 44 4V2C43.229 2 42.532 2.3 42 2.78A2.98 2.98 0 0 0 40 2V4C40.551 4 41 4.449 41 5"
                                                                                        fill="#ffffff"
                                                                                        data-fill-palette-color="quaternary">
                                                                                    </path>
                                                                                    <path
                                                                                        d="M47 5H49C49 4.449 49.449 4 50 4V2C49.229 2 48.532 2.3 48 2.78A2.98 2.98 0 0 0 46 2V4C46.551 4 47 4.449 47 5"
                                                                                        fill="#ffffff"
                                                                                        data-fill-palette-color="quaternary">
                                                                                    </path>
                                                                                    <path
                                                                                        d="M53 5H55C55 4.449 55.449 4 56 4V2C55.229 2 54.532 2.3 54 2.78A2.98 2.98 0 0 0 52 2V4C52.551 4 53 4.449 53 5"
                                                                                        fill="#ffffff"
                                                                                        data-fill-palette-color="quaternary">
                                                                                    </path>
                                                                                    <path
                                                                                        d="M43 7V9C43.551 9 44 9.449 44 10H46C46 9.449 46.449 9 47 9V7C46.229 7 45.532 7.3 45 7.78A2.98 2.98 0 0 0 43 7"
                                                                                        fill="#ffffff"
                                                                                        data-fill-palette-color="quaternary">
                                                                                    </path>
                                                                                    <path
                                                                                        d="M49 7V9C49.551 9 50 9.449 50 10H52C52 9.449 52.449 9 53 9V7C52.229 7 51.532 7.3 51 7.78A2.98 2.98 0 0 0 49 7"
                                                                                        fill="#ffffff"
                                                                                        data-fill-palette-color="quaternary">
                                                                                    </path>
                                                                                    <path
                                                                                        d="M55 7V9C55.551 9 56 9.449 56 10H58C58 9.449 58.449 9 59 9V7C58.229 7 57.532 7.3 57 7.78A2.98 2.98 0 0 0 55 7"
                                                                                        fill="#ffffff"
                                                                                        data-fill-palette-color="quaternary">
                                                                                    </path>
                                                                                    <path
                                                                                        d="M59 5H61C61 4.449 61.449 4 62 4V2C61.229 2 60.532 2.3 60 2.78A2.98 2.98 0 0 0 58 2V4C58.551 4 59 4.449 59 5"
                                                                                        fill="#ffffff"
                                                                                        data-fill-palette-color="quaternary">
                                                                                    </path>
                                                                                    <path
                                                                                        d="M32 8C34.206 8 36 6.206 36 4S34.206 0 32 0 28 1.794 28 4 29.794 8 32 8M32 2C33.103 2 34 2.897 34 4S33.103 6 32 6 30 5.103 30 4 30.897 2 32 2"
                                                                                        fill="#ffffff"
                                                                                        data-fill-palette-color="quaternary">
                                                                                    </path>
                                                                                    <path
                                                                                        d="M23 24H21C21 25.654 19.654 27 18 27S15 25.654 15 24H13C13 25.654 11.654 27 10 27S7 25.654 7 24H5C5 25.654 3.654 27 2 27V29C3.641 29 5.088 28.194 6 26.969 6.912 28.194 8.359 29 10 29S13.088 28.194 14 26.969C14.912 28.194 16.359 29 18 29S21.088 28.194 22 26.969C22.912 28.194 24.359 29 26 29V27C24.346 27 23 25.654 23 24"
                                                                                        fill="#ffffff"
                                                                                        data-fill-palette-color="quaternary">
                                                                                    </path>
                                                                                    <path
                                                                                        d="M61 20H59C59 21.654 57.654 23 56 23S53 21.654 53 20H51C51 21.654 49.654 23 48 23S45 21.654 45 20H43C43 21.654 41.654 23 40 23V25C41.641 25 43.088 24.194 44 22.969 44.912 24.194 46.359 25 48 25S51.088 24.194 52 22.969C52.912 24.194 54.359 25 56 25S59.088 24.194 60 22.969C60.912 24.194 62.359 25 64 25V23C62.346 23 61 21.654 61 20"
                                                                                        fill="#ffffff"
                                                                                        data-fill-palette-color="quaternary">
                                                                                    </path>
                                                                                    <path
                                                                                        d="M44 37C45.641 37 47.088 36.194 48 34.969 48.912 36.194 50.359 37 52 37V35C50.346 35 49 33.654 49 32H47C47 33.654 45.654 35 44 35S41 33.654 41 32H39C39 33.654 37.654 35 36 35S33 33.654 33 32H31C31 33.654 29.654 35 28 35V37C29.641 37 31.088 36.194 32 34.969 32.912 36.194 34.359 37 36 37S39.088 36.194 40 34.969C40.912 36.194 42.359 37 44 37"
                                                                                        fill="#ffffff"
                                                                                        data-fill-palette-color="quaternary">
                                                                                    </path>
                                                                                    <path
                                                                                        d="M23 45C21.346 45 20 43.654 20 42H18C18 43.654 16.654 45 15 45S12 43.654 12 42H10C10 43.654 8.654 45 7 45V47C8.641 47 10.088 46.194 11 44.969 11.912 46.194 13.359 47 15 47S18.088 46.194 19 44.969C19.912 46.194 21.359 47 23 47S26.088 46.194 27 44.969C27.912 46.194 29.359 47 31 47V45C29.346 45 28 43.654 28 42H26C26 43.654 24.654 45 23 45"
                                                                                        fill="#ffffff"
                                                                                        data-fill-palette-color="quaternary">
                                                                                    </path>
                                                                                    <path
                                                                                        d="M21 59H19C19 60.654 17.654 62 16 62S13 60.654 13 59H11C11 60.654 9.654 62 8 62S5 60.654 5 59H3C3 60.654 1.654 62 0 62V64C1.641 64 3.088 63.194 4 61.969 4.912 63.194 6.359 64 8 64S11.088 63.194 12 61.969C12.912 63.194 14.359 64 16 64S19.088 63.194 20 61.969C20.912 63.194 22.359 64 24 64V62C22.346 62 21 60.654 21 59"
                                                                                        fill="#ffffff"
                                                                                        data-fill-palette-color="quaternary">
                                                                                    </path>
                                                                                    <path
                                                                                        d="M61 54H59C59 55.654 57.654 57 56 57S53 55.654 53 54H51C51 55.654 49.654 57 48 57S45 55.654 45 54H43C43 55.654 41.654 57 40 57V59C41.641 59 43.088 58.194 44 56.969 44.912 58.194 46.359 59 48 59S51.088 58.194 52 56.969C52.912 58.194 54.359 59 56 59S59.088 58.194 60 56.969C60.912 58.194 62.359 59 64 59V57C62.346 57 61 55.654 61 54"
                                                                                        fill="#ffffff"
                                                                                        data-fill-palette-color="quaternary">
                                                                                    </path>
                                                                                    <path
                                                                                        d="M47 42H45C45 43.654 43.654 45 42 45V47C43.641 47 45.088 46.194 46 44.969 46.912 46.194 48.359 47 50 47S53.088 46.194 54 44.969C54.912 46.194 56.359 47 58 47V45C56.346 45 55 43.654 55 42H53C53 43.654 51.654 45 50 45S47 43.654 47 42"
                                                                                        fill="#ffffff"
                                                                                        data-fill-palette-color="quaternary">
                                                                                    </path>
                                                                                    <path
                                                                                        d="M4 36.969C4.912 38.194 6.359 39 8 39S11.088 38.194 12 36.969C12.912 38.194 14.359 39 16 39V37C14.346 37 13 35.654 13 34H11C11 35.654 9.654 37 8 37S5 35.654 5 34H3C3 35.654 1.654 37 0 37V39C1.641 39 3.088 38.194 4 36.969"
                                                                                        fill="#ffffff"
                                                                                        data-fill-palette-color="quaternary">
                                                                                    </path>
                                                                                    <path
                                                                                        d="M35 51H33C33 52.654 31.654 54 30 54S27 52.654 27 51H25C25 52.654 23.654 54 22 54V56C23.641 56 25.088 55.194 26 53.969 26.912 55.194 28.359 56 30 56S33.088 55.194 34 53.969C34.912 55.194 36.359 56 38 56V54C36.346 54 35 52.654 35 51"
                                                                                        fill="#ffffff"
                                                                                        data-fill-palette-color="quaternary">
                                                                                    </path>
                                                                                </svg></g>
                                                                        </svg></g>
                                                                    <g id="text-0">
                                                                        <path
                                                                            d="M13.515 66.737l-0.838 2.41 7.275 2.53 1.073-2.445 0.208 0.073-2.291 6.585-0.207-0.072 0.534-2.176-16.855-5.862-0.941 2.035-0.198-0.069 2.254-6.482c0.694-1.997 1.653-3.383 2.876-4.157 1.227-0.767 2.615-0.88 4.164-0.342v0c1.657 0.576 2.739 1.545 3.246 2.908 0.501 1.36 0.401 3.048-0.3 5.064zM3.805 63.445l-0.812 2.334 9.373 3.259 0.811-2.334c0.482-1.386 0.442-2.529-0.12-3.43-0.568-0.904-1.706-1.652-3.413-2.246v0c-1.417-0.493-2.613-0.587-3.587-0.284-0.978 0.295-1.729 1.196-2.252 2.701z"
                                                                            fill="#ffffff"
                                                                            data-fill-palette-color="quaternary"></path>
                                                                        <path
                                                                            d="M25.565 59.675c-0.328 0.604-0.807 0.985-1.44 1.143-0.632 0.158-1.282 0.056-1.95-0.307v0c-0.791-0.429-1.229-1.133-1.312-2.112-0.09-0.982 0.163-2.434 0.758-4.356v0l-2.172-1.179c-0.92-0.499-1.616-0.74-2.088-0.723-0.469 0.011-0.842 0.272-1.118 0.782v0c-0.267 0.492-0.35 0.96-0.249 1.402 0.093 0.445 0.362 0.788 0.808 1.029v0l0.656 0.322c0.399 0.216 0.671 0.463 0.817 0.739 0.155 0.274 0.159 0.545 0.013 0.815v0c-0.13 0.24-0.316 0.394-0.557 0.46-0.241 0.067-0.49 0.03-0.749-0.11v0c-0.381-0.207-0.695-0.62-0.943-1.24-0.248-0.62-0.365-1.306-0.352-2.057v0c-0.011-0.931 0.191-1.778 0.604-2.54v0c0.242-0.446 0.535-0.776 0.879-0.991 0.344-0.215 0.713-0.307 1.106-0.277v0c0.25 0.029 0.533 0.115 0.851 0.257 0.312 0.139 0.898 0.442 1.76 0.909v0l4.546 2.466c0.574 0.312 1 0.471 1.277 0.477 0.271 0.003 0.485-0.139 0.641-0.426v0c0.232-0.428 0.254-0.826 0.067-1.193v0l0.096-0.073c0.294 0.41 0.463 0.832 0.508 1.266 0.039 0.431-0.04 0.828-0.236 1.191v0c-0.226 0.416-0.535 0.692-0.928 0.829-0.392 0.136-0.802 0.108-1.228-0.086v0l-0.069 0.065c0.266 0.615 0.399 1.229 0.4 1.844 0.003 0.624-0.129 1.182-0.396 1.674zM25.217 58.155c0.181-0.334 0.275-0.689 0.282-1.065 0.007-0.376-0.078-0.737-0.255-1.083v0l-3.368-1.826c-0.237 0.941-0.377 1.696-0.42 2.264-0.04 0.563 0.033 1.016 0.219 1.359 0.182 0.349 0.487 0.64 0.915 0.872v0c0.557 0.302 1.07 0.406 1.538 0.311 0.475-0.092 0.837-0.369 1.089-0.832z"
                                                                            fill="#ffffff"
                                                                            data-fill-palette-color="quaternary"></path>
                                                                        <path
                                                                            d="M24.116 39.87c0.213-0.29 0.491-0.466 0.835-0.529 0.349-0.058 0.66 0.013 0.934 0.215v0c0.237 0.174 0.374 0.398 0.411 0.674 0.043 0.28-0.021 0.535-0.19 0.766v0c-0.107 0.145-0.228 0.242-0.363 0.292-0.132 0.044-0.299 0.07-0.504 0.077v0c-0.193 0.015-0.349 0.042-0.467 0.078-0.118 0.037-0.221 0.115-0.308 0.234v0c-0.17 0.231-0.204 0.57-0.101 1.017 0.097 0.443 0.29 0.85 0.58 1.221v0l6.668 4.896 1.454-1.626 0.178 0.131-3.304 4.499-0.177-0.131 0.807-1.454-7.651-5.619-1.432 0.935-0.153-0.112 0.965-3.089 0.131-0.177 1.919 1.409c-0.679-1.756-0.757-2.992-0.232-3.707z"
                                                                            fill="#ffffff"
                                                                            data-fill-palette-color="quaternary"></path>
                                                                        <path
                                                                            d="M40.195 35.62l-0.073-0.402 0.112-0.045 0.141 0.287c0.445 0.924 0.608 1.824 0.491 2.699-0.113 0.88-0.513 1.679-1.2 2.396v0c-0.673 0.703-1.456 1.154-2.348 1.353-0.892 0.199-1.81 0.141-2.756-0.173-0.95-0.319-1.849-0.884-2.697-1.696v0c-0.848-0.812-1.447-1.699-1.799-2.663-0.356-0.969-0.426-1.927-0.211-2.875 0.206-0.948 0.677-1.807 1.415-2.578v0c0.876-0.915 1.819-1.36 2.83-1.335 1.01 0.035 2.038 0.538 3.082 1.51v0l-0.017 0.206-5.063 5.289c0.314 0.356 0.568 0.627 0.76 0.811v0c1.19 1.139 2.328 1.763 3.416 1.871 1.083 0.113 2.037-0.261 2.862-1.123v0c0.424-0.443 0.731-0.966 0.921-1.57 0.194-0.608 0.239-1.262 0.134-1.962zM31.273 32.34c-0.586 0.612-0.817 1.364-0.694 2.258 0.123 0.893 0.566 1.815 1.327 2.766v0l3.494-3.925c-0.113-0.191-0.352-0.462-0.718-0.812v0c-0.703-0.673-1.329-1.013-1.876-1.02-0.547-0.007-1.058 0.238-1.533 0.733z"
                                                                            fill="#ffffff"
                                                                            data-fill-palette-color="quaternary"></path>
                                                                        <path
                                                                            d="M52.228 29.314l1.435-0.803 0.131 0.176-4.048 3.005-0.131-0.176 1.2-1.153-4.126-5.558c-0.417-0.562-0.743-0.973-0.976-1.231-0.235-0.249-0.467-0.438-0.696-0.567v0c-0.301-0.159-0.635-0.206-1.001-0.141-0.371 0.06-0.731 0.218-1.079 0.476v0c-0.739 0.549-1.17 1.35-1.292 2.405v0l5.467 7.365 1.459-0.821 0.131 0.177-4.072 3.023-0.131-0.177 1.2-1.153-5.581-7.517-1.637 0.48-0.113-0.153 1.825-2.676 0.177-0.131 1.02 1.373c0.2-1.677 0.806-2.891 1.818-3.642v0c0.45-0.334 0.934-0.544 1.452-0.629 0.517-0.076 0.97-0.014 1.359 0.187v0c0.245 0.117 0.505 0.327 0.779 0.63 0.269 0.307 0.704 0.864 1.304 1.673v0z"
                                                                            fill="#ffffff"
                                                                            data-fill-palette-color="quaternary"></path>
                                                                        <path
                                                                            d="M51.686 13.75l-1.241 3.956 0.106 0.09 1.125-0.612 4.152 7.625c0.268 0.492 0.539 0.857 0.812 1.096 0.277 0.244 0.601 0.386 0.973 0.427v0c0.555 0.07 1.084-0.032 1.588-0.307v0c0.492-0.268 0.879-0.665 1.162-1.191 0.286-0.52 0.411-1.093 0.374-1.718v0l-0.135-0.018c-0.125 0.44-0.272 0.79-0.442 1.05-0.17 0.26-0.381 0.458-0.633 0.595v0c-0.527 0.287-0.99 0.288-1.387 0.003v0c-0.322-0.174-0.633-0.536-0.933-1.086v0l-3.971-7.292 2.574-1.401-0.065-0.454-2.714 1.478-1.234-2.267z"
                                                                            fill="#ffffff"
                                                                            data-fill-palette-color="quaternary"></path>
                                                                        <path
                                                                            d="M72.174 19.868l1.618-0.388 0.078 0.206-4.743 1.796-0.077-0.206 1.478-0.785-2.451-6.473c-0.262-0.692-0.471-1.187-0.627-1.485-0.149-0.3-0.313-0.534-0.49-0.702v0c-0.246-0.235-0.551-0.372-0.916-0.413-0.367-0.046-0.753 0.007-1.158 0.161v0c-0.879 0.333-1.503 0.983-1.872 1.949v0l3.248 8.579 1.628-0.392 0.077 0.206-4.742 1.796-0.078-0.206 1.469-0.781-6.118-16.155-1.709 0.005-0.067-0.178 2.574-2.098 0.197-0.074 3.379 8.924c0.318-0.741 0.708-1.359 1.17-1.855 0.464-0.489 0.973-0.839 1.528-1.049v0c0.511-0.194 1.014-0.259 1.508-0.197 0.5 0.06 0.924 0.246 1.27 0.557v0c0.204 0.18 0.393 0.454 0.568 0.823 0.181 0.366 0.451 1.02 0.807 1.961v0z"
                                                                            fill="#ffffff"
                                                                            data-fill-palette-color="quaternary"></path>
                                                                        <path
                                                                            d="M84.623 14.541l0.167-0.373 0.118 0.027-0.046 0.316c-0.155 1.014-0.528 1.849-1.12 2.504-0.59 0.662-1.371 1.095-2.343 1.3v0c-0.953 0.2-1.853 0.13-2.702-0.21-0.848-0.34-1.574-0.906-2.176-1.699-0.604-0.8-1.027-1.774-1.268-2.923v0c-0.241-1.149-0.234-2.22 0.02-3.214 0.253-1 0.736-1.831 1.449-2.491 0.705-0.666 1.58-1.109 2.624-1.328v0c1.24-0.26 2.27-0.095 3.089 0.496 0.814 0.599 1.377 1.595 1.691 2.987v0l-0.13 0.16-7.166 1.505c0.058 0.472 0.115 0.838 0.169 1.099v0c0.339 1.612 0.926 2.77 1.762 3.473 0.829 0.705 1.828 0.935 2.996 0.69v0c0.6-0.126 1.149-0.384 1.647-0.775 0.504-0.392 0.91-0.907 1.219-1.544zM79.112 6.795c-0.829 0.174-1.445 0.665-1.847 1.472-0.403 0.807-0.559 1.817-0.468 3.031v0l5.101-1.265c0.015-0.221-0.03-0.58-0.134-1.076v0c-0.2-0.953-0.524-1.587-0.972-1.901-0.448-0.315-1.008-0.402-1.68-0.261zM78.952 4.038l-0.074 0.037-2.179-1.812-0.473-0.401c-0.283-0.213-0.482-0.379-0.595-0.499-0.106-0.114-0.172-0.233-0.198-0.357v0c-0.048-0.228-0.021-0.439 0.082-0.631 0.098-0.184 0.261-0.3 0.489-0.348v0c0.424-0.089 0.737 0.039 0.94 0.386v0z"
                                                                            fill="#ffffff"
                                                                            data-fill-palette-color="quaternary"></path>
                                                                        <path
                                                                            d="M92.346 4.875c-1.264 0.082-2.228 0.425-2.89 1.03-0.656 0.604-0.951 1.408-0.886 2.413v0c0.041 0.632 0.202 1.15 0.482 1.552 0.28 0.396 0.614 0.705 1.002 0.928 0.382 0.216 0.888 0.457 1.521 0.723v0c0.858 0.345 1.505 0.694 1.942 1.046 0.444 0.352 0.69 0.897 0.738 1.637v0c0.045 0.685-0.119 1.254-0.491 1.705-0.372 0.445-0.891 0.689-1.556 0.733v0c-0.739 0.048-1.357-0.216-1.856-0.792-0.498-0.569-0.878-1.48-1.139-2.732v0l-0.33 0.021 0.368 3.505c0.389 0.122 0.856 0.212 1.401 0.27 0.545 0.051 1.033 0.063 1.466 0.035v0c1.191-0.077 2.119-0.458 2.782-1.143 0.664-0.685 0.96-1.579 0.889-2.684v0c-0.043-0.665-0.212-1.206-0.507-1.622-0.288-0.416-0.626-0.735-1.014-0.956-0.382-0.216-0.898-0.45-1.549-0.701v0c-0.837-0.327-1.466-0.65-1.888-0.97-0.416-0.327-0.646-0.833-0.69-1.519v0c-0.04-0.612 0.108-1.116 0.443-1.513 0.335-0.396 0.802-0.613 1.401-0.652v0c0.645-0.042 1.177 0.171 1.595 0.638 0.424 0.46 0.798 1.221 1.121 2.283v0l0.3-0.019-0.195-2.995c-0.3-0.094-0.679-0.163-1.136-0.207-0.45-0.038-0.892-0.042-1.324-0.014z"
                                                                            fill="#ffffff"
                                                                            data-fill-palette-color="quaternary"></path>
                                                                        <path
                                                                            d="M108.558 14.572l0.266-0.309 0.106 0.059-0.134 0.29c-0.437 0.928-1.032 1.622-1.786 2.082-0.754 0.467-1.626 0.66-2.617 0.579v0c-0.97-0.079-1.814-0.402-2.53-0.969-0.716-0.567-1.251-1.317-1.603-2.249-0.352-0.939-0.48-1.993-0.384-3.162v0c0.096-1.17 0.407-2.195 0.934-3.076 0.527-0.887 1.227-1.546 2.098-1.976 0.865-0.438 1.83-0.613 2.893-0.526v0c1.263 0.103 2.203 0.555 2.82 1.354 0.61 0.806 0.867 1.921 0.771 3.345v0l-0.17 0.116-7.298-0.596c-0.078 0.469-0.128 0.836-0.15 1.102v0c-0.134 1.642 0.1 2.919 0.701 3.831 0.595 0.912 1.487 1.416 2.676 1.513v0c0.611 0.05 1.211-0.042 1.799-0.274 0.594-0.232 1.13-0.61 1.608-1.134zM105.479 5.579c-0.844-0.069-1.574 0.226-2.19 0.885-0.616 0.659-1.053 1.583-1.311 2.774v0l5.25 0.238c0.077-0.208 0.136-0.564 0.178-1.07v0c0.079-0.97-0.051-1.67-0.391-2.099-0.34-0.429-0.852-0.672-1.536-0.728z"
                                                                            fill="#ffffff"
                                                                            data-fill-palette-color="quaternary"></path>
                                                                        <path
                                                                            d="M134.758 5.45c1.46 0.587 2.635 1.526 3.524 2.818 0.893 1.301 1.409 2.78 1.548 4.438 0.142 1.667-0.124 3.339-0.798 5.016v0c-0.674 1.677-1.639 3.068-2.895 4.173-1.248 1.101-2.643 1.809-4.185 2.123-1.536 0.317-3.034 0.182-4.495-0.405v0c-1.46-0.587-2.638-1.528-3.534-2.822-0.889-1.292-1.406-2.768-1.551-4.429-0.136-1.665 0.133-3.335 0.807-5.012v0c0.674-1.677 1.636-3.069 2.887-4.176 1.254-1.099 2.65-1.81 4.188-2.133 1.542-0.314 3.044-0.178 4.504 0.409zM125.593 12.32c-1.127 2.803-1.515 5.155-1.166 7.057 0.344 1.899 1.397 3.203 3.161 3.911v0c1.757 0.706 3.42 0.494 4.988-0.636 1.562-1.133 2.907-3.101 4.034-5.904v0c1.127-2.803 1.519-5.157 1.178-7.062-0.345-1.914-1.396-3.224-3.153-3.93v0c-1.763-0.709-3.429-0.491-4.996 0.655-1.571 1.137-2.92 3.106-4.046 5.909z"
                                                                            fill="#ffffff"
                                                                            data-fill-palette-color="quaternary"></path>
                                                                        <path
                                                                            d="M149.061 21.333c-0.854-0.57-1.764-0.864-2.73-0.883-0.969-0.013-1.906 0.244-2.81 0.771-0.91 0.523-1.691 1.273-2.342 2.249v0c-0.633 0.949-1.02 1.913-1.161 2.894-0.141 0.98-0.039 1.886 0.305 2.716 0.353 0.829 0.926 1.508 1.719 2.037v0c0.832 0.555 1.697 0.815 2.594 0.78 0.899-0.026 1.765-0.338 2.597-0.937v0l0.258-0.189-0.063-0.103-0.383 0.142c-0.695 0.225-1.343 0.307-1.942 0.244-0.599-0.063-1.176-0.28-1.731-0.65v0c-1.021-0.681-1.571-1.569-1.651-2.664-0.074-1.091 0.326-2.292 1.2-3.601v0c0.581-0.871 1.228-1.57 1.939-2.097 0.703-0.525 1.405-0.838 2.106-0.94 0.697-0.096 1.315 0.035 1.854 0.395v0c0.455 0.303 0.683 0.628 0.685 0.974 0.007 0.35-0.092 0.793-0.298 1.329v0c-0.185 0.47-0.282 0.838-0.291 1.104-0.011 0.257 0.133 0.486 0.433 0.685v0c0.255 0.17 0.512 0.229 0.771 0.178 0.253-0.055 0.467-0.214 0.641-0.474v0c0.37-0.555 0.39-1.215 0.058-1.981-0.329-0.757-0.915-1.416-1.758-1.979z"
                                                                            fill="#ffffff"
                                                                            data-fill-palette-color="quaternary"></path>
                                                                        <path
                                                                            d="M156.428 39.196l0.4-0.082 0.047 0.111-0.283 0.148c-0.914 0.466-1.809 0.65-2.687 0.552-0.882-0.092-1.69-0.474-2.424-1.144v0c-0.719-0.657-1.188-1.429-1.407-2.315-0.219-0.887-0.183-1.807 0.11-2.76 0.297-0.957 0.841-1.869 1.633-2.735v0c0.792-0.866 1.665-1.486 2.621-1.86 0.96-0.378 1.916-0.471 2.869-0.278 0.952 0.184 1.822 0.635 2.61 1.356v0c0.935 0.855 1.402 1.787 1.4 2.797-0.011 1.011-0.491 2.049-1.439 3.116v0l-0.205-0.012-5.405-4.939c-0.349 0.323-0.613 0.582-0.794 0.779v0c-1.111 1.216-1.708 2.369-1.791 3.458-0.088 1.085 0.308 2.03 1.189 2.835v0c0.453 0.414 0.983 0.709 1.591 0.884 0.612 0.18 1.267 0.21 1.965 0.089zM159.5 30.2c-0.625-0.571-1.383-0.785-2.274-0.641-0.89 0.144-1.802 0.607-2.734 1.391v0l4.005 3.402c0.188-0.117 0.453-0.363 0.795-0.737v0c0.657-0.719 0.982-1.352 0.977-1.899-0.006-0.547-0.262-1.053-0.769-1.516zM161.047 27.915l0.045 0.068 2.798-0.451 0.611-0.106c0.352-0.039 0.605-0.084 0.759-0.133 0.154-0.04 0.274-0.107 0.359-0.2v0c0.157-0.172 0.241-0.367 0.25-0.585 0.01-0.208-0.072-0.391-0.244-0.548v0c-0.32-0.292-0.655-0.341-1.005-0.146v0z"
                                                                            fill="#ffffff"
                                                                            data-fill-palette-color="quaternary"></path>
                                                                        <path
                                                                            d="M158.337 46.016c-0.429-0.536-0.593-1.127-0.493-1.77 0.1-0.644 0.447-1.203 1.041-1.677v0c0.703-0.562 1.522-0.692 2.456-0.389 0.939 0.299 2.179 1.097 3.719 2.393v0l1.93-1.543c0.818-0.654 1.311-1.201 1.478-1.643 0.172-0.436 0.077-0.881-0.285-1.334v0c-0.35-0.438-0.748-0.695-1.195-0.773-0.446-0.088-0.867 0.027-1.263 0.343v0l-0.551 0.479c-0.354 0.283-0.687 0.438-0.999 0.465-0.312 0.036-0.564-0.065-0.756-0.304v0c-0.171-0.214-0.24-0.444-0.207-0.693 0.032-0.248 0.163-0.463 0.392-0.646v0c0.339-0.271 0.842-0.4 1.509-0.387 0.668 0.013 1.345 0.171 2.033 0.475v0c0.862 0.352 1.564 0.867 2.105 1.545v0c0.316 0.396 0.507 0.794 0.571 1.195 0.064 0.401 0.006 0.776-0.175 1.126v0c-0.124 0.219-0.313 0.447-0.567 0.684-0.249 0.233-0.756 0.656-1.522 1.268v0l-4.04 3.23c-0.51 0.408-0.822 0.739-0.936 0.991-0.108 0.249-0.061 0.501 0.144 0.756v0c0.304 0.38 0.662 0.555 1.073 0.526v0l0.03 0.117c-0.492 0.111-0.946 0.103-1.364-0.024-0.412-0.131-0.748-0.358-1.006-0.681v0c-0.296-0.37-0.43-0.762-0.403-1.177 0.027-0.414 0.213-0.781 0.557-1.098v0l-0.033-0.089c-0.67 0.006-1.288-0.11-1.854-0.349-0.576-0.24-1.039-0.578-1.389-1.016zM159.873 46.287c0.237 0.297 0.528 0.521 0.871 0.674 0.344 0.152 0.709 0.214 1.097 0.186v0l2.992-2.393c-0.775-0.585-1.416-1.007-1.922-1.267-0.503-0.255-0.949-0.364-1.338-0.327-0.393 0.032-0.779 0.2-1.159 0.504v0c-0.495 0.396-0.79 0.828-0.884 1.297-0.1 0.473 0.014 0.915 0.343 1.326z"
                                                                            fill="#ffffff"
                                                                            data-fill-palette-color="quaternary"></path>
                                                                        <path
                                                                            d="M168.994 61.298l0.62 1.522-0.191 0.109-2.484-4.387 0.191-0.109 0.996 1.333 6.023-3.411c0.609-0.345 1.057-0.618 1.342-0.817 0.276-0.202 0.493-0.409 0.649-0.621v0c0.195-0.279 0.282-0.604 0.263-0.976-0.013-0.376-0.127-0.752-0.34-1.129v0c-0.453-0.801-1.196-1.327-2.227-1.579v0l-7.982 4.52 0.635 1.549-0.191 0.108-2.499-4.413 0.191-0.108 0.996 1.333 8.147-4.614-0.275-1.684 0.166-0.093 2.431 2.141 0.108 0.191-1.488 0.843c1.639 0.405 2.77 1.156 3.391 2.253v0c0.276 0.487 0.425 0.993 0.445 1.518 0.012 0.522-0.105 0.964-0.352 1.326v0c-0.146 0.229-0.387 0.46-0.721 0.696-0.338 0.229-0.944 0.592-1.821 1.088v0z"
                                                                            fill="#ffffff"
                                                                            data-fill-palette-color="quaternary"></path>
                                                                        <path
                                                                            d="M176.117 72.802l0.394 0.109-0.009 0.121-0.319 0.002c-1.026-0.001-1.907-0.244-2.644-0.731-0.743-0.484-1.289-1.191-1.638-2.121v0c-0.341-0.912-0.407-1.813-0.199-2.702 0.208-0.89 0.659-1.692 1.353-2.408 0.7-0.718 1.6-1.282 2.699-1.693v0c1.099-0.411 2.159-0.566 3.18-0.463 1.027 0.1 1.921 0.453 2.682 1.058 0.764 0.597 1.334 1.395 1.707 2.395v0c0.444 1.187 0.435 2.229-0.026 3.128-0.47 0.895-1.37 1.602-2.699 2.12v0l-0.178-0.104-2.565-6.858c-0.457 0.128-0.811 0.239-1.061 0.333v0c-1.543 0.577-2.599 1.332-3.169 2.264-0.572 0.926-0.649 1.948-0.231 3.066v0c0.215 0.575 0.553 1.078 1.014 1.511 0.463 0.439 1.033 0.763 1.709 0.973zM182.946 66.189c-0.297-0.793-0.874-1.328-1.732-1.605-0.858-0.277-1.881-0.279-3.068-0.006v0l2.018 4.852c0.221-0.019 0.569-0.117 1.043-0.294v0c0.912-0.341 1.49-0.757 1.734-1.247 0.244-0.49 0.246-1.057 0.005-1.7z"
                                                                            fill="#ffffff"
                                                                            data-fill-palette-color="quaternary"></path>
                                                                        <path
                                                                            d="M2.874 97.421c0-4.124 3.343-7.467 7.466-7.466 4.124 0 7.467 3.343 7.467 7.466 0 4.124-3.343 7.467-7.467 7.467-4.124 0-7.467-3.343-7.466-7.467z"
                                                                            fill="#ffffff"
                                                                            data-fill-palette-color="quaternary"></path>
                                                                        <path
                                                                            d="M175.159 97.421c0-4.124 3.343-7.467 7.467-7.466 4.124 0 7.467 3.343 7.466 7.466 0 4.124-3.343 7.467-7.466 7.467-4.124 0-7.467-3.343-7.467-7.467z"
                                                                            fill="#ffffff"
                                                                            data-fill-palette-color="quaternary"></path>
                                                                    </g>
                                                                    <g id="text-1">
                                                                        <path
                                                                            d="M11.563 136.341l4.131-3.524-2.86-7.677-5.423 0.056-0.926-2.484 20.922 0.17 0.785 2.109-15.704 13.835zM24.817 125.042l-9.724 0.089 2.319 6.224z"
                                                                            fill="#ff585f"
                                                                            data-fill-palette-color="secondary"></path>
                                                                        <path
                                                                            d="M21.554 140.045v0c1.911-1.22 3.711-1.747 5.398-1.583 1.693 0.161 3.004 0.97 3.933 2.426v0c0.954 1.495 1.17 2.999 0.649 4.511v0l1.422-0.765 1.216 1.906-11.948 7.626c-1.585 1.012-3.133 1.339-4.643 0.981-1.515-0.354-2.779-1.324-3.79-2.909v0c-0.563-0.883-0.926-1.866-1.088-2.949-0.162-1.084-0.055-2.057 0.319-2.921v0l1.946 0.277c-0.533 1.606-0.386 3.059 0.443 4.357v0c0.649 1.017 1.444 1.63 2.383 1.838 0.936 0.202 1.924-0.029 2.963-0.693v0l1.054-0.673c-1.501-0.22-2.715-1.056-3.64-2.506v0c-0.915-1.433-1.078-2.959-0.489-4.577 0.591-1.627 1.882-3.076 3.872-4.346zM22.658 142.295v0c-1.383 0.883-2.287 1.859-2.712 2.929-0.425 1.07-0.312 2.114 0.338 3.131v0c0.843 1.321 2.061 1.909 3.652 1.763v0l5.591-3.568c0.76-1.387 0.731-2.721-0.087-4.003v0c-0.653-1.023-1.559-1.568-2.717-1.636-1.159-0.067-2.514 0.394-4.065 1.384z"
                                                                            fill="#ff585f"
                                                                            data-fill-palette-color="secondary"></path>
                                                                        <path
                                                                            d="M37.553 150.247l1.644 1.681-1.246 1.33c1.77-0.183 3.283 0.366 4.537 1.649v0c2.145 2.193 1.99 4.509-0.465 6.948v0l-6.865 6.715-1.735-1.773 6.872-6.722c0.739-0.742 1.124-1.454 1.156-2.138 0.026-0.688-0.308-1.387-1.003-2.098v0c-0.56-0.572-1.206-0.928-1.94-1.068-0.734-0.131-1.468-0.075-2.202 0.167v0l-7.401 7.239-1.735-1.773z"
                                                                            fill="#ff585f"
                                                                            data-fill-palette-color="secondary"></path>
                                                                        <path
                                                                            d="M46.492 176.934v0c-1.642-1.083-2.623-2.504-2.941-4.263-0.318-1.759 0.119-3.543 1.313-5.353v0l0.247-0.375c0.793-1.203 1.729-2.127 2.81-2.773 1.086-0.642 2.217-0.958 3.394-0.95 1.176 0.009 2.249 0.332 3.218 0.971v0c1.576 1.039 2.457 2.367 2.645 3.985 0.191 1.612-0.351 3.387-1.629 5.324v0l-0.567 0.86-8.218-5.417c-0.761 1.215-1.047 2.413-0.858 3.591 0.184 1.175 0.791 2.103 1.821 2.782v0c0.729 0.481 1.447 0.742 2.154 0.785 0.705 0.033 1.41-0.073 2.115-0.319v0l0.62 1.822c-2.05 0.893-4.091 0.67-6.124-0.67zM53.41 165.895v0c-0.841-0.554-1.745-0.715-2.713-0.482-0.972 0.238-1.886 0.862-2.743 1.87v0l6.08 4.008 0.105-0.159c0.632-1.093 0.886-2.096 0.761-3.008-0.131-0.917-0.627-1.66-1.49-2.229zM56.735 158.67l0.01 4.728-1.787-1.179-0.72-5.195z"
                                                                            fill="#ff585f"
                                                                            data-fill-palette-color="secondary"></path>
                                                                        <path
                                                                            d="M67.041 182.45v0c0.254-0.624 0.219-1.203-0.103-1.738-0.331-0.531-1.03-1.157-2.098-1.879-1.058-0.726-1.86-1.401-2.404-2.026-0.545-0.625-0.883-1.245-1.015-1.859-0.131-0.615-0.063-1.253 0.206-1.914v0c0.45-1.106 1.296-1.849 2.538-2.229 1.244-0.386 2.592-0.284 4.044 0.306v0c1.526 0.621 2.603 1.52 3.233 2.697 0.626 1.169 0.689 2.368 0.189 3.598v0l-2.308-0.939c0.256-0.63 0.209-1.283-0.142-1.959-0.351-0.676-0.932-1.178-1.741-1.507v0c-0.84-0.342-1.569-0.426-2.187-0.253-0.624 0.171-1.055 0.55-1.294 1.137v0c-0.226 0.556-0.175 1.066 0.155 1.532 0.323 0.463 1.007 1.054 2.053 1.775 1.037 0.724 1.841 1.411 2.412 2.061 0.567 0.641 0.922 1.282 1.064 1.923 0.14 0.647 0.064 1.329-0.227 2.046v0c-0.49 1.205-1.364 1.972-2.622 2.302-1.26 0.337-2.656 0.194-4.188-0.429v0c-1.075-0.437-1.951-1.017-2.629-1.739-0.672-0.72-1.104-1.515-1.298-2.386-0.191-0.877-0.124-1.713 0.201-2.51v0l2.307 0.939c-0.277 0.787-0.217 1.524 0.18 2.211 0.391 0.685 1.059 1.219 2.004 1.604v0c0.871 0.354 1.641 0.462 2.309 0.324 0.668-0.138 1.122-0.501 1.361-1.088z"
                                                                            fill="#ff585f"
                                                                            data-fill-palette-color="secondary"></path>
                                                                        <path
                                                                            d="M85.236 185.268v0c0.051-0.939 0.358-1.787 0.92-2.544 0.569-0.757 1.618-1.618 3.147-2.583v0c-0.808-1.099-1.341-1.98-1.598-2.642-0.265-0.656-0.379-1.303-0.345-1.942v0c0.081-1.485 0.584-2.623 1.509-3.414 0.918-0.791 2.13-1.146 3.635-1.063v0c1.338 0.073 2.426 0.527 3.262 1.36 0.83 0.827 1.212 1.836 1.146 3.029v0c-0.043 0.786-0.282 1.501-0.718 2.144-0.429 0.644-1.16 1.306-2.193 1.984v0l-1.496 0.98 4.061 5.422c0.669-1.125 1.043-2.401 1.121-3.826v0l2.238 0.122c-0.125 2.277-0.777 4.138-1.959 5.583v0l2.604 3.489-2.976-0.163-1.215-1.609c-0.691 0.55-1.492 0.957-2.401 1.221-0.902 0.258-1.813 0.362-2.732 0.311v0c-1.904-0.104-3.405-0.694-4.501-1.769-1.097-1.069-1.6-2.432-1.509-4.09zM91.357 189.099v0c1.312 0.072 2.541-0.362 3.688-1.3v0l-4.453-5.954-0.457 0.295c-1.552 1.017-2.359 2.105-2.422 3.264v0c-0.058 1.059 0.235 1.923 0.88 2.592 0.651 0.67 1.573 1.038 2.764 1.103zM89.852 175.613v0c-0.047 0.859 0.42 1.96 1.402 3.303v0l1.638-1.023c0.636-0.399 1.075-0.786 1.316-1.16 0.248-0.374 0.386-0.837 0.417-1.39v0c0.033-0.599-0.163-1.111-0.587-1.535-0.431-0.424-0.986-0.655-1.666-0.692v0c-0.732-0.04-1.325 0.178-1.778 0.654-0.453 0.469-0.7 1.084-0.742 1.843z"
                                                                            fill="#ff585f"
                                                                            data-fill-palette-color="secondary"></path>
                                                                        <path
                                                                            d="M122.245 179.482l-4.435 1.264 2.097 7.359-2.472 0.705-5.356-18.798 6.926-1.974c2.059-0.587 3.822-0.52 5.289 0.199 1.465 0.713 2.444 1.935 2.937 3.667v0c0.521 1.828 0.35 3.395-0.511 4.701-0.86 1.313-2.352 2.272-4.475 2.877zM115.132 171.347l2.1 7.369 4.454-1.269c1.328-0.378 2.255-0.979 2.784-1.802 0.528-0.823 0.624-1.825 0.288-3.005v0c-0.32-1.122-0.927-1.917-1.823-2.383-0.897-0.472-1.965-0.546-3.205-0.22v0z"
                                                                            fill="#ff585f"
                                                                            data-fill-palette-color="secondary"></path>
                                                                        <path
                                                                            d="M147.506 176.297l-2.295 1.246c-0.26-0.185-0.606-0.578-1.038-1.178v0c-0.441 1.605-1.365 2.79-2.771 3.554v0c-1.26 0.684-2.486 0.887-3.677 0.608-1.194-0.27-2.088-0.953-2.683-2.049v0c-0.719-1.324-0.772-2.631-0.16-3.92 0.61-1.28 1.832-2.418 3.667-3.414v0l2.119-1.151-0.544-1.002c-0.417-0.768-0.973-1.255-1.67-1.461-0.702-0.203-1.499-0.063-2.39 0.421v0c-0.779 0.423-1.326 0.974-1.64 1.654-0.314 0.679-0.319 1.3-0.013 1.862v0l-2.189 1.189c-0.347-0.639-0.455-1.377-0.326-2.214 0.127-0.843 0.483-1.647 1.069-2.413 0.592-0.769 1.35-1.405 2.277-1.907v0c1.471-0.799 2.823-1.055 4.056-0.769 1.23 0.281 2.213 1.056 2.948 2.327v0l3.188 5.872c0.636 1.172 1.293 2.026 1.971 2.56v0zM140.687 177.848v0c0.686-0.372 1.239-0.904 1.661-1.596 0.419-0.683 0.611-1.383 0.578-2.101v0l-1.423-2.619-1.705 0.926c-2.672 1.451-3.584 2.959-2.734 4.523v0c0.372 0.686 0.889 1.099 1.55 1.242 0.667 0.139 1.358 0.014 2.073-0.375z"
                                                                            fill="#ff585f"
                                                                            data-fill-palette-color="secondary"></path>
                                                                        <path
                                                                            d="M157.572 163.332v0c-0.434-0.515-0.963-0.754-1.586-0.718-0.624 0.046-1.504 0.374-2.639 0.982-1.135 0.599-2.105 0.994-2.912 1.186-0.807 0.192-1.513 0.202-2.118 0.033-0.605-0.17-1.138-0.528-1.598-1.073v0c-0.769-0.913-1.034-2.007-0.793-3.283 0.237-1.281 0.954-2.427 2.153-3.437v0c1.259-1.062 2.557-1.597 3.892-1.607 1.326-0.01 2.417 0.492 3.272 1.507v0l-1.904 1.605c-0.438-0.52-1.038-0.782-1.8-0.785-0.762-0.003-1.476 0.277-2.145 0.84v0c-0.693 0.585-1.107 1.191-1.241 1.818-0.139 0.632-0.004 1.19 0.404 1.674v0c0.387 0.459 0.863 0.651 1.428 0.576 0.56-0.071 1.402-0.401 2.526-0.992 1.124-0.581 2.106-0.973 2.947-1.176 0.831-0.204 1.564-0.219 2.198-0.047 0.638 0.177 1.206 0.562 1.704 1.154v0c0.838 0.994 1.111 2.125 0.819 3.392-0.288 1.272-1.065 2.441-2.329 3.507v0c-0.887 0.748-1.808 1.254-2.763 1.518-0.95 0.26-1.855 0.273-2.715 0.038-0.865-0.239-1.574-0.688-2.129-1.345v0l1.905-1.606c0.568 0.612 1.248 0.901 2.041 0.87 0.788-0.028 1.572-0.37 2.352-1.028v0c0.719-0.606 1.173-1.237 1.361-1.893 0.188-0.656 0.078-1.226-0.33-1.71z"
                                                                            fill="#ff585f"
                                                                            data-fill-palette-color="secondary"></path>
                                                                        <path
                                                                            d="M169.151 153.457v0c0.55-0.695 0.821-1.468 0.813-2.316-0.01-0.858-0.308-1.566-0.896-2.125v0l1.453-1.835c0.629 0.549 1.075 1.263 1.339 2.144 0.26 0.886 0.292 1.813 0.096 2.78-0.196 0.968-0.6 1.838-1.213 2.612v0c-1.225 1.548-2.717 2.37-4.476 2.465-1.764 0.101-3.545-0.56-5.344-1.984v0l-0.322-0.254c-1.109-0.877-1.933-1.861-2.473-2.952-0.54-1.091-0.748-2.208-0.625-3.353 0.124-1.135 0.598-2.223 1.422-3.263v0c1.01-1.276 2.232-2.035 3.665-2.278 1.439-0.239 2.789 0.098 4.048 1.01v0l-1.452 1.835c-0.783-0.526-1.608-0.724-2.476-0.595-0.873 0.125-1.601 0.557-2.185 1.295v0c-0.782 0.988-1.033 2.036-0.752 3.142 0.286 1.111 1.101 2.198 2.444 3.262v0l0.369 0.291c1.313 1.039 2.538 1.57 3.675 1.595 1.132 0.02 2.096-0.472 2.89-1.476z"
                                                                            fill="#ff585f"
                                                                            data-fill-palette-color="secondary"></path>
                                                                        <path
                                                                            d="M182.884 133.673l-1.187 2.325c-0.319-0.006-0.827-0.134-1.522-0.384v0c0.545 1.573 0.453 3.073-0.274 4.499v0c-0.652 1.277-1.548 2.137-2.688 2.581-1.137 0.453-2.261 0.396-3.372-0.171v0c-1.342-0.685-2.125-1.733-2.349-3.142-0.221-1.401 0.143-3.03 1.092-4.89v0l1.096-2.147-1.016-0.519c-0.778-0.397-1.513-0.484-2.203-0.259-0.694 0.23-1.271 0.796-1.732 1.699v0c-0.403 0.79-0.542 1.554-0.417 2.291 0.125 0.738 0.473 1.252 1.043 1.543v0l-1.133 2.219c-0.647-0.33-1.154-0.877-1.521-1.641-0.372-0.767-0.534-1.631-0.484-2.595 0.053-0.969 0.319-1.923 0.798-2.861v0c0.761-1.491 1.731-2.467 2.91-2.928 1.173-0.464 2.422-0.381 3.747 0.25v0l5.951 3.038c1.188 0.606 2.213 0.938 3.074 0.997v0zM178.14 138.81v0c0.355-0.695 0.51-1.447 0.466-2.256-0.041-0.8-0.278-1.486-0.712-2.059v0l-2.655-1.355-0.882 1.728c-1.383 2.708-1.281 4.467 0.305 5.277v0c0.695 0.355 1.355 0.403 1.98 0.146 0.628-0.263 1.128-0.757 1.498-1.481z"
                                                                            fill="#ff585f"
                                                                            data-fill-palette-color="secondary"></path>
                                                                        <path
                                                                            d="M166.591 117.775l19.56 6.514-0.787 2.363-19.56-6.514z"
                                                                            fill="#ff585f"
                                                                            data-fill-palette-color="secondary"></path>
                                                                    </g>
                                                                </svg></g>
                                                        </svg></g>
                                                </svg></g>
                                            <g></g>
                                        </svg></g>
                                </svg></g>
                        </svg></g>
                    <defs></defs>
                </svg>
                <rect width="333.6336410249246" height="333.6336410249246" fill="none" stroke="none"
                    visibility="hidden"></rect>
            </g>
        </svg></g>
</svg>