<svg xmlns="http://www.w3.org/2000/svg" version="1.1" xmlns:xlink="http://www.w3.org/1999/xlink"
    xmlns:svgjs="http://svgjs.dev/svgjs" width="1500" height="1500" viewBox="0 0 1500 1500">
    <rect width="1500" height="1500" fill="#ffffff"></rect>
    <g transform="matrix(0.6666666666666666,0,0,0.6666666666666666,249.50000000000006,249.50000000000006)"><svg
            viewBox="0 0 280 280" data-background-color="#ffffff" preserveAspectRatio="xMidYMid meet" height="1500"
            width="1500" xmlns="http://www.w3.org/2000/svg" xmlns:xlink="http://www.w3.org/1999/xlink">
            <g id="tight-bounds" transform="matrix(1,0,0,1,0.13999999999998636,0.13999999999998636)"><svg
                    viewBox="0 0 279.72 279.72" height="279.72" width="279.72">
                    <g><svg viewBox="0 0 279.72 279.72" height="279.72" width="279.72">
                            <g><svg viewBox="0 0 279.72 279.72" height="279.72" width="279.72">
                                    <g id="textblocktransform"><svg viewBox="0 0 279.72 279.72" height="279.72"
                                            width="279.72" id="textblock">
                                            <g><svg viewBox="0 0 279.72 279.72" height="279.72" width="279.72">
                                                    <g transform="matrix(1,0,0,1,92.38994187995975,92.38994187995975)">
                                                        <svg viewBox="0 0 94.94011624008053 94.94011624008053"
                                                            height="94.94011624008053" width="94.94011624008053">
                                                            <g id="icon-0"><svg xmlns="http://www.w3.org/2000/svg"
                                                                    xml:space="preserve" viewBox="0 0 64 64" x="0" y="0"
                                                                    height="94.94011624008053" width="94.94011624008053"
                                                                    class="icon-jxe-0" data-fill-palette-color="accent"
                                                                    id="jxe-0">
                                                                    <path
                                                                        d="M0 15h64v2H0zM3 5h2c0-0.551 0.449-1 1-1V2c-0.771 0-1.468 0.3-2 0.78A2.98 2.98 0 0 0 2 2v2c0.551 0 1 0.449 1 1M9 5h2c0-0.551 0.449-1 1-1V2c-0.771 0-1.468 0.3-2 0.78A2.98 2.98 0 0 0 8 2v2c0.551 0 1 0.449 1 1M15 5h2c0-0.551 0.449-1 1-1V2c-0.771 0-1.468 0.3-2 0.78A2.98 2.98 0 0 0 14 2v2c0.551 0 1 0.449 1 1M5 7v2c0.551 0 1 0.449 1 1h2c0-0.551 0.449-1 1-1V7c-0.771 0-1.468 0.3-2 0.78A2.98 2.98 0 0 0 5 7M11 7v2c0.551 0 1 0.449 1 1h2c0-0.551 0.449-1 1-1V7c-0.771 0-1.468 0.3-2 0.78A2.98 2.98 0 0 0 11 7M17 7v2c0.551 0 1 0.449 1 1h2c0-0.551 0.449-1 1-1V7c-0.771 0-1.468 0.3-2 0.78A2.98 2.98 0 0 0 17 7M21 5h2c0-0.551 0.449-1 1-1V2c-0.771 0-1.468 0.3-2 0.78A2.98 2.98 0 0 0 20 2v2c0.551 0 1 0.449 1 1M41 5h2c0-0.551 0.449-1 1-1V2c-0.771 0-1.468 0.3-2 0.78A2.98 2.98 0 0 0 40 2v2c0.551 0 1 0.449 1 1M47 5h2c0-0.551 0.449-1 1-1V2c-0.771 0-1.468 0.3-2 0.78A2.98 2.98 0 0 0 46 2v2c0.551 0 1 0.449 1 1M53 5h2c0-0.551 0.449-1 1-1V2c-0.771 0-1.468 0.3-2 0.78A2.98 2.98 0 0 0 52 2v2c0.551 0 1 0.449 1 1M43 7v2c0.551 0 1 0.449 1 1h2c0-0.551 0.449-1 1-1V7c-0.771 0-1.468 0.3-2 0.78A2.98 2.98 0 0 0 43 7M49 7v2c0.551 0 1 0.449 1 1h2c0-0.551 0.449-1 1-1V7c-0.771 0-1.468 0.3-2 0.78A2.98 2.98 0 0 0 49 7M55 7v2c0.551 0 1 0.449 1 1h2c0-0.551 0.449-1 1-1V7c-0.771 0-1.468 0.3-2 0.78A2.98 2.98 0 0 0 55 7M59 5h2c0-0.551 0.449-1 1-1V2c-0.771 0-1.468 0.3-2 0.78A2.98 2.98 0 0 0 58 2v2c0.551 0 1 0.449 1 1M32 8c2.206 0 4-1.794 4-4s-1.794-4-4-4-4 1.794-4 4 1.794 4 4 4m0-6c1.103 0 2 0.897 2 2s-0.897 2-2 2-2-0.897-2-2 0.897-2 2-2M23 24h-2c0 1.654-1.346 3-3 3s-3-1.346-3-3h-2c0 1.654-1.346 3-3 3s-3-1.346-3-3H5c0 1.654-1.346 3-3 3v2c1.641 0 3.088-0.806 4-2.031C6.912 28.194 8.359 29 10 29s3.088-0.806 4-2.031C14.912 28.194 16.359 29 18 29s3.088-0.806 4-2.031C22.912 28.194 24.359 29 26 29v-2c-1.654 0-3-1.346-3-3M61 20h-2c0 1.654-1.346 3-3 3s-3-1.346-3-3h-2c0 1.654-1.346 3-3 3s-3-1.346-3-3h-2c0 1.654-1.346 3-3 3v2c1.641 0 3.088-0.806 4-2.031 0.912 1.225 2.359 2.031 4 2.031s3.088-0.806 4-2.031C52.912 24.194 54.359 25 56 25s3.088-0.806 4-2.031C60.912 24.194 62.359 25 64 25v-2c-1.654 0-3-1.346-3-3M44 37c1.641 0 3.088-0.806 4-2.031 0.912 1.225 2.359 2.031 4 2.031v-2c-1.654 0-3-1.346-3-3h-2c0 1.654-1.346 3-3 3s-3-1.346-3-3h-2c0 1.654-1.346 3-3 3s-3-1.346-3-3h-2c0 1.654-1.346 3-3 3v2c1.641 0 3.088-0.806 4-2.031 0.912 1.225 2.359 2.031 4 2.031s3.088-0.806 4-2.031C40.912 36.194 42.359 37 44 37M23 45c-1.654 0-3-1.346-3-3h-2c0 1.654-1.346 3-3 3s-3-1.346-3-3h-2c0 1.654-1.346 3-3 3v2c1.641 0 3.088-0.806 4-2.031 0.912 1.225 2.359 2.031 4 2.031s3.088-0.806 4-2.031C19.912 46.194 21.359 47 23 47s3.088-0.806 4-2.031C27.912 46.194 29.359 47 31 47v-2c-1.654 0-3-1.346-3-3h-2c0 1.654-1.346 3-3 3M21 59h-2c0 1.654-1.346 3-3 3s-3-1.346-3-3h-2c0 1.654-1.346 3-3 3s-3-1.346-3-3H3c0 1.654-1.346 3-3 3v2c1.641 0 3.088-0.806 4-2.031C4.912 63.194 6.359 64 8 64s3.088-0.806 4-2.031C12.912 63.194 14.359 64 16 64s3.088-0.806 4-2.031C20.912 63.194 22.359 64 24 64v-2c-1.654 0-3-1.346-3-3M61 54h-2c0 1.654-1.346 3-3 3s-3-1.346-3-3h-2c0 1.654-1.346 3-3 3s-3-1.346-3-3h-2c0 1.654-1.346 3-3 3v2c1.641 0 3.088-0.806 4-2.031 0.912 1.225 2.359 2.031 4 2.031s3.088-0.806 4-2.031C52.912 58.194 54.359 59 56 59s3.088-0.806 4-2.031C60.912 58.194 62.359 59 64 59v-2c-1.654 0-3-1.346-3-3M47 42h-2c0 1.654-1.346 3-3 3v2c1.641 0 3.088-0.806 4-2.031 0.912 1.225 2.359 2.031 4 2.031s3.088-0.806 4-2.031C54.912 46.194 56.359 47 58 47v-2c-1.654 0-3-1.346-3-3h-2c0 1.654-1.346 3-3 3s-3-1.346-3-3M4 36.969C4.912 38.194 6.359 39 8 39s3.088-0.806 4-2.031C12.912 38.194 14.359 39 16 39v-2c-1.654 0-3-1.346-3-3h-2c0 1.654-1.346 3-3 3s-3-1.346-3-3H3c0 1.654-1.346 3-3 3v2c1.641 0 3.088-0.806 4-2.031M35 51h-2c0 1.654-1.346 3-3 3s-3-1.346-3-3h-2c0 1.654-1.346 3-3 3v2c1.641 0 3.088-0.806 4-2.031 0.912 1.225 2.359 2.031 4 2.031s3.088-0.806 4-2.031C34.912 55.194 36.359 56 38 56v-2c-1.654 0-3-1.346-3-3"
                                                                        fill="#ff585f" data-fill-palette-color="accent">
                                                                    </path>
                                                                </svg></g>
                                                        </svg></g>
                                                    <g id="text-0">
                                                        <path
                                                            d="M19.754 97.545l-1.225 3.524 10.638 3.7 1.571-3.573 0.302 0.105-3.348 9.627-0.302-0.105 0.775-3.172-24.631-8.567-1.37 2.966-0.302-0.105 3.296-9.476c1.014-2.916 2.417-4.938 4.207-6.067 1.79-1.128 3.822-1.297 6.096-0.506v0c2.419 0.841 3.995 2.258 4.728 4.249 0.733 1.992 0.589 4.459-0.435 7.4zM5.572 92.74l-1.187 3.41 13.7 4.765 1.186-3.411c0.703-2.022 0.643-3.695-0.182-5.019-0.833-1.32-2.496-2.414-4.99-3.282v0c-2.072-0.721-3.821-0.859-5.246-0.416-1.423 0.437-2.517 1.755-3.281 3.953z"
                                                            fill="#1e55b3" data-fill-palette-color="primary"></path>
                                                        <path
                                                            d="M37.375 87.226c-0.477 0.879-1.179 1.439-2.106 1.679-0.924 0.235-1.875 0.087-2.854-0.444v0c-1.161-0.63-1.802-1.664-1.924-3.103-0.119-1.43 0.25-3.551 1.107-6.364v0l-3.165-1.717c-1.348-0.731-2.366-1.086-3.053-1.064-0.684 0.016-1.228 0.396-1.631 1.14v0c-0.391 0.721-0.515 1.405-0.373 2.051 0.143 0.646 0.539 1.146 1.19 1.499v0l0.96 0.475c0.58 0.315 0.98 0.676 1.199 1.083 0.213 0.404 0.213 0.802 0 1.195v0c-0.191 0.352-0.459 0.574-0.805 0.667-0.355 0.096-0.718 0.043-1.087-0.157v0c-0.557-0.302-1.019-0.905-1.385-1.81-0.367-0.904-0.539-1.908-0.518-3.011v0c-0.014-1.358 0.281-2.594 0.885-3.708v0c0.353-0.651 0.782-1.135 1.288-1.452 0.503-0.311 1.043-0.447 1.621-0.407v0c0.359 0.051 0.771 0.179 1.236 0.386 0.459 0.203 1.315 0.645 2.569 1.326v0l6.656 3.61c0.832 0.452 1.451 0.681 1.857 0.689 0.4 0.004 0.712-0.202 0.938-0.618v0c0.34-0.627 0.373-1.212 0.099-1.756v0l0.142-0.094c0.431 0.59 0.676 1.201 0.736 1.833 0.062 0.641-0.051 1.228-0.341 1.761v0c-0.328 0.604-0.779 1.003-1.356 1.199-0.571 0.199-1.17 0.158-1.8-0.122v0l-0.092 0.086c0.385 0.899 0.578 1.801 0.581 2.705 0.009 0.907-0.183 1.722-0.574 2.443zM36.858 85.011c0.267-0.492 0.408-1.011 0.424-1.557 0.009-0.549-0.118-1.077-0.382-1.584v0l-4.915-2.666c-0.356 1.37-0.561 2.468-0.615 3.296-0.06 0.825 0.044 1.492 0.313 2.002 0.267 0.501 0.714 0.922 1.341 1.262v0c0.815 0.442 1.566 0.595 2.254 0.461 0.691-0.141 1.218-0.546 1.58-1.214z"
                                                            fill="#1e55b3" data-fill-palette-color="primary"></path>
                                                        <path
                                                            d="M35.241 58.279c0.316-0.43 0.727-0.686 1.234-0.768 0.506-0.092 0.963 0.012 1.372 0.312v0c0.339 0.249 0.539 0.578 0.602 0.988 0.057 0.406-0.038 0.779-0.287 1.117v0c-0.158 0.215-0.335 0.354-0.53 0.418-0.194 0.073-0.443 0.113-0.747 0.121v0c-0.283 0.024-0.508 0.061-0.677 0.111-0.167 0.059-0.314 0.175-0.44 0.347v0c-0.249 0.339-0.302 0.833-0.159 1.484 0.147 0.645 0.431 1.239 0.852 1.78v0l9.748 7.158 2.126-2.373 0.258 0.19-4.831 6.579-0.258-0.19 1.183-2.134-11.183-8.212-2.086 1.372-0.226-0.166 1.402-4.53 0.184-0.25 2.814 2.066c-1-2.571-1.117-4.377-0.351-5.42z"
                                                            fill="#1e55b3" data-fill-palette-color="primary"></path>
                                                        <path
                                                            d="M58.75 52.064l-0.098-0.592 0.162-0.053 0.214 0.413c0.643 1.354 0.881 2.672 0.716 3.953-0.17 1.287-0.758 2.455-1.763 3.505v0c-0.982 1.026-2.126 1.685-3.43 1.978-1.3 0.288-2.642 0.199-4.025-0.266-1.387-0.46-2.702-1.285-3.945-2.475v0c-1.243-1.19-2.12-2.491-2.632-3.904-0.517-1.408-0.623-2.807-0.318-4.196 0.305-1.389 0.996-2.646 2.076-3.773v0c1.277-1.334 2.657-1.98 4.138-1.937 1.472 0.043 2.972 0.777 4.499 2.201v0l-0.015 0.304-7.401 7.732c0.459 0.513 0.833 0.909 1.122 1.185v0c1.734 1.66 3.391 2.572 4.97 2.736 1.588 0.163 2.987-0.386 4.195-1.648v0c0.618-0.645 1.066-1.412 1.343-2.301 0.283-0.883 0.347-1.838 0.192-2.862zM45.72 47.276c-0.858 0.896-1.197 1.998-1.017 3.305 0.175 1.303 0.822 2.652 1.942 4.047v0l5.11-5.743c-0.176-0.279-0.531-0.675-1.066-1.187v0c-1.031-0.987-1.943-1.486-2.735-1.497-0.793-0.011-1.537 0.347-2.234 1.075z"
                                                            fill="#1e55b3" data-fill-palette-color="primary"></path>
                                                        <path
                                                            d="M76.344 42.849l2.096-1.17 0.191 0.257-5.919 4.394-0.191-0.257 1.759-1.691-6.028-8.12c-0.612-0.825-1.091-1.424-1.435-1.8-0.341-0.37-0.677-0.644-1.009-0.821v0c-0.442-0.237-0.931-0.309-1.469-0.217-0.542 0.087-1.067 0.319-1.576 0.696v0c-1.082 0.803-1.71 1.975-1.886 3.518v0l7.99 10.762 2.128-1.194 0.191 0.257-5.952 4.418-0.19-0.257 1.758-1.692-8.15-10.979-2.398 0.697-0.167-0.225 2.674-3.916 0.249-0.185 1.491 2.008c0.287-2.455 1.172-4.233 2.655-5.335v0c0.659-0.489 1.366-0.79 2.121-0.902 0.751-0.118 1.42-0.028 2.005 0.268v0c0.347 0.166 0.719 0.471 1.116 0.916 0.397 0.445 1.036 1.261 1.918 2.45v0z"
                                                            fill="#1e55b3" data-fill-palette-color="primary"></path>
                                                        <path
                                                            d="M75.559 20.109l-1.821 5.775 0.166 0.137 1.634-0.889 6.06 11.13c0.392 0.72 0.79 1.256 1.193 1.606 0.406 0.356 0.881 0.565 1.423 0.626v0c0.809 0.106 1.586-0.043 2.33-0.449v0c0.72-0.392 1.285-0.973 1.694-1.742 0.412-0.763 0.595-1.599 0.548-2.508v0l-0.198-0.029c-0.186 0.648-0.406 1.159-0.658 1.532-0.244 0.376-0.55 0.664-0.919 0.865v0c-0.767 0.418-1.443 0.425-2.027 0.021v0c-0.465-0.255-0.92-0.79-1.363-1.604v0l-5.802-10.656 3.76-2.047-0.099-0.664-3.963 2.157-1.798-3.303z"
                                                            fill="#1e55b3" data-fill-palette-color="primary"></path>
                                                        <path
                                                            d="M105.5 29.042l2.364-0.563 0.113 0.299-6.932 2.625-0.113-0.3 2.154-1.147-3.581-9.457c-0.383-1.01-0.685-1.734-0.907-2.17-0.225-0.443-0.464-0.783-0.719-1.022v0c-0.36-0.349-0.805-0.554-1.335-0.618-0.539-0.067-1.104 0.012-1.697 0.236v0c-1.285 0.486-2.194 1.437-2.728 2.852v0l4.746 12.535 2.365-0.564 0.113 0.299-6.932 2.625-0.113-0.299 2.154-1.147-8.94-23.612-2.498 0.015-0.099-0.261 3.754-3.08 0.3-0.113 4.941 13.05c0.461-1.08 1.029-1.98 1.705-2.7 0.674-0.726 1.419-1.243 2.236-1.552v0c0.736-0.279 1.468-0.37 2.196-0.275 0.732 0.087 1.353 0.361 1.862 0.824v0c0.295 0.252 0.573 0.646 0.833 1.182 0.26 0.536 0.652 1.496 1.177 2.881v0z"
                                                            fill="#1e55b3" data-fill-palette-color="primary"></path>
                                                        <path
                                                            d="M123.692 21.252l0.254-0.544 0.163 0.047-0.056 0.462c-0.234 1.48-0.782 2.702-1.642 3.666-0.867 0.966-2.012 1.598-3.435 1.897v0c-1.39 0.292-2.706 0.19-3.948-0.305-1.235-0.497-2.292-1.328-3.17-2.493-0.885-1.163-1.504-2.587-1.858-4.27v0c-0.354-1.684-0.343-3.253 0.033-4.709 0.369-1.454 1.072-2.668 2.107-3.642 1.036-0.974 2.317-1.621 3.844-1.941v0c1.808-0.38 3.311-0.133 4.51 0.739 1.191 0.867 2.014 2.32 2.468 4.357v0l-0.184 0.243-10.474 2.2c0.089 0.683 0.175 1.221 0.257 1.612v0c0.493 2.349 1.345 4.038 2.556 5.064 1.218 1.032 2.683 1.368 4.392 1.009v0c0.875-0.184 1.677-0.563 2.408-1.139 0.732-0.569 1.324-1.321 1.775-2.253zM115.644 9.941c-1.214 0.255-2.116 0.972-2.706 2.152-0.592 1.174-0.819 2.652-0.683 4.437v0l7.46-1.853c0.013-0.33-0.057-0.857-0.209-1.582v0c-0.293-1.397-0.764-2.323-1.412-2.78-0.648-0.457-1.465-0.582-2.45-0.374zM115.409 5.902l-0.109 0.064-3.194-2.652-0.684-0.582c-0.422-0.32-0.711-0.563-0.869-0.727-0.152-0.172-0.247-0.35-0.285-0.533v0c-0.07-0.333-0.035-0.637 0.105-0.911 0.146-0.276 0.389-0.45 0.728-0.521v0c0.62-0.13 1.075 0.057 1.365 0.562v0z"
                                                            fill="#1e55b3" data-fill-palette-color="primary"></path>
                                                        <path
                                                            d="M134.979 7.119c-1.85 0.12-3.254 0.622-4.212 1.506-0.965 0.885-1.399 2.066-1.303 3.543v0c0.06 0.925 0.296 1.678 0.708 2.26 0.405 0.582 0.889 1.031 1.451 1.349 0.569 0.324 1.314 0.68 2.234 1.068v0c1.255 0.5 2.204 1.01 2.846 1.529 0.641 0.513 0.997 1.308 1.067 2.386v0c0.065 1.005-0.171 1.835-0.71 2.492-0.545 0.657-1.304 1.017-2.275 1.08v0c-1.085 0.07-1.992-0.315-2.722-1.156-0.729-0.835-1.284-2.169-1.663-4.002v0l-0.479 0.032 0.534 5.127c0.566 0.177 1.25 0.306 2.05 0.388 0.801 0.082 1.517 0.102 2.149 0.061v0c1.737-0.113 3.09-0.672 4.061-1.677 0.97-1.005 1.404-2.31 1.299-3.914v0c-0.064-0.978-0.309-1.771-0.736-2.378-0.42-0.608-0.915-1.073-1.484-1.397-0.562-0.318-1.316-0.66-2.262-1.026v0c-1.227-0.475-2.147-0.95-2.759-1.424-0.612-0.475-0.951-1.215-1.016-2.22v0c-0.058-0.892 0.158-1.627 0.648-2.207 0.491-0.573 1.172-0.888 2.044-0.945v0c0.952-0.062 1.733 0.245 2.345 0.92 0.612 0.675 1.156 1.793 1.631 3.353v0l0.43-0.028-0.286-4.392c-0.43-0.132-0.977-0.231-1.643-0.294-0.666-0.064-1.315-0.075-1.947-0.034z"
                                                            fill="#1e55b3" data-fill-palette-color="primary"></path>
                                                        <path
                                                            d="M158.679 21.297l0.398-0.449 0.143 0.092-0.185 0.427c-0.646 1.352-1.518 2.368-2.617 3.048-1.106 0.679-2.383 0.96-3.833 0.841v0c-1.416-0.116-2.648-0.588-3.698-1.416-1.043-0.828-1.82-1.925-2.33-3.291-0.517-1.367-0.706-2.908-0.566-4.623v0c0.14-1.715 0.597-3.216 1.371-4.505 0.768-1.289 1.786-2.253 3.056-2.891 1.27-0.639 2.682-0.895 4.238-0.768v0c1.841 0.15 3.212 0.814 4.113 1.991 0.895 1.17 1.27 2.797 1.127 4.879v0l-0.246 0.181-10.667-0.871c-0.109 0.68-0.18 1.22-0.213 1.619v0c-0.195 2.393 0.141 4.253 1.01 5.582 0.874 1.336 2.182 2.075 3.924 2.217v0c0.891 0.073 1.768-0.063 2.632-0.407 0.864-0.338 1.645-0.889 2.343-1.656zM154.181 8.164c-1.236-0.101-2.305 0.33-3.206 1.294-0.901 0.957-1.54 2.31-1.917 4.059v0l7.679 0.346c0.106-0.313 0.189-0.838 0.249-1.576v0c0.116-1.422-0.071-2.445-0.562-3.066-0.491-0.622-1.239-0.974-2.243-1.057z"
                                                            fill="#1e55b3" data-fill-palette-color="primary"></path>
                                                        <path
                                                            d="M196.968 7.974c2.135 0.858 3.854 2.232 5.157 4.121 1.303 1.889 2.059 4.051 2.267 6.484 0.202 2.431-0.19 4.872-1.175 7.322v0c-0.985 2.45-2.391 4.483-4.219 6.099-1.834 1.613-3.875 2.65-6.124 3.112-2.248 0.462-4.44 0.264-6.574-0.594v0c-2.135-0.858-3.854-2.232-5.157-4.121-1.303-1.889-2.059-4.051-2.267-6.484-0.202-2.431 0.19-4.872 1.175-7.322v0c0.985-2.45 2.391-4.483 4.219-6.099 1.834-1.613 3.875-2.65 6.124-3.112 2.248-0.462 4.44-0.264 6.574 0.594zM183.578 18.008c-1.646 4.096-2.215 7.533-1.707 10.31 0.506 2.783 2.045 4.692 4.619 5.727v0c2.574 1.035 5.007 0.722 7.298-0.937 2.289-1.653 4.256-4.528 5.902-8.624v0c1.646-4.096 2.218-7.539 1.715-10.329-0.501-2.796-2.038-4.711-4.612-5.745v0c-2.574-1.035-5.009-0.716-7.305 0.956-2.294 1.665-4.264 4.546-5.91 8.642z"
                                                            fill="#1e55b3" data-fill-palette-color="primary"></path>
                                                        <path
                                                            d="M217.889 31.178c-1.254-0.836-2.587-1.265-4.001-1.286-1.413-0.021-2.781 0.354-4.103 1.123-1.328 0.765-2.47 1.864-3.424 3.295v0c-0.921 1.381-1.486 2.792-1.693 4.233-0.209 1.431-0.061 2.753 0.445 3.965 0.512 1.215 1.351 2.211 2.516 2.988v0c1.204 0.803 2.465 1.183 3.784 1.141 1.313-0.046 2.58-0.503 3.801-1.372v0l0.369-0.283-0.08-0.15-0.566 0.2c-1.019 0.338-1.966 0.46-2.841 0.366-0.875-0.095-1.717-0.412-2.528-0.953v0c-1.498-0.999-2.3-2.296-2.407-3.89-0.112-1.598 0.47-3.354 1.746-5.268v0c0.847-1.27 1.79-2.293 2.828-3.067 1.04-0.765 2.069-1.221 3.088-1.367 1.014-0.15 1.917 0.04 2.71 0.569v0c0.66 0.44 0.996 0.917 1.007 1.429 0.002 0.514-0.147 1.164-0.447 1.95v0c-0.263 0.682-0.404 1.213-0.425 1.592-0.019 0.388 0.191 0.729 0.63 1.022v0c0.377 0.252 0.752 0.333 1.123 0.244 0.374-0.079 0.686-0.308 0.938-0.685v0c0.54-0.81 0.569-1.773 0.087-2.888-0.473-1.117-1.326-2.087-2.557-2.908z"
                                                            fill="#1e55b3" data-fill-palette-color="primary"></path>
                                                        <path
                                                            d="M228.653 57.29l0.589-0.111 0.057 0.16-0.408 0.224c-1.339 0.674-2.65 0.943-3.935 0.807-1.29-0.14-2.472-0.701-3.545-1.681v0c-1.049-0.958-1.734-2.086-2.057-3.384-0.318-1.293-0.26-2.636 0.173-4.03 0.428-1.398 1.222-2.731 2.383-4.001v0c1.161-1.27 2.441-2.177 3.842-2.722 1.396-0.549 2.792-0.687 4.187-0.415 1.395 0.272 2.669 0.935 3.821 1.988v0c1.364 1.246 2.041 2.61 2.032 4.093-0.009 1.473-0.708 2.989-2.097 4.547v0l-0.304-0.007-7.901-7.22c-0.503 0.471-0.889 0.854-1.159 1.149v0c-1.619 1.772-2.493 3.449-2.62 5.032-0.127 1.592 0.455 2.977 1.745 4.155v0c0.66 0.603 1.437 1.033 2.331 1.29 0.89 0.262 1.845 0.304 2.866 0.126zM233.138 44.153c-0.916-0.837-2.025-1.15-3.328-0.941-1.298 0.205-2.632 0.883-4 2.035v0l5.859 4.976c0.275-0.182 0.662-0.547 1.162-1.093v0c0.963-1.053 1.44-1.976 1.433-2.769-0.007-0.793-0.383-1.529-1.126-2.208zM235.401 40.801l0.062 0.11 4.091-0.665 0.892-0.146c0.521-0.066 0.891-0.13 1.11-0.192 0.224-0.067 0.398-0.169 0.525-0.307v0c0.229-0.251 0.351-0.533 0.365-0.845 0.014-0.312-0.104-0.583-0.355-0.812v0c-0.468-0.427-0.957-0.5-1.468-0.217v0z"
                                                            fill="#1e55b3" data-fill-palette-color="primary"></path>
                                                        <path
                                                            d="M231.441 67.269c-0.625-0.781-0.868-1.646-0.729-2.593 0.143-0.942 0.649-1.761 1.52-2.457v0c1.031-0.824 2.234-1.013 3.607-0.566 1.364 0.446 3.175 1.611 5.432 3.495v0l2.813-2.249c1.198-0.958 1.92-1.757 2.167-2.399 0.251-0.636 0.112-1.285-0.416-1.946v0c-0.512-0.641-1.094-1.021-1.745-1.141-0.651-0.12-1.265 0.051-1.844 0.513v0l-0.811 0.7c-0.516 0.412-1.004 0.64-1.463 0.683-0.455 0.039-0.822-0.115-1.102-0.464v0c-0.25-0.313-0.35-0.646-0.301-1.001 0.05-0.364 0.239-0.678 0.568-0.941v0c0.495-0.396 1.23-0.586 2.205-0.572 0.976 0.014 1.968 0.245 2.976 0.694v0c1.257 0.515 2.281 1.267 3.072 2.257v0c0.462 0.578 0.741 1.162 0.837 1.752 0.091 0.584 0.006 1.135-0.255 1.651v0c-0.187 0.311-0.465 0.641-0.836 0.988-0.366 0.344-1.106 0.961-2.221 1.852v0l-5.914 4.729c-0.74 0.591-1.192 1.072-1.356 1.443-0.159 0.367-0.091 0.735 0.204 1.104v0c0.446 0.557 0.972 0.815 1.579 0.774v0l0.031 0.167c-0.711 0.167-1.37 0.156-1.974-0.035-0.614-0.192-1.111-0.525-1.49-0.999v0c-0.429-0.536-0.621-1.108-0.578-1.715 0.039-0.603 0.31-1.14 0.813-1.61v0l-0.044-0.119c-0.978 0.005-1.884-0.167-2.718-0.516-0.839-0.345-1.515-0.838-2.027-1.479zM233.683 67.654c0.35 0.438 0.773 0.769 1.269 0.996 0.502 0.222 1.038 0.31 1.608 0.264v0l4.367-3.492c-1.123-0.861-2.056-1.477-2.797-1.848-0.736-0.376-1.392-0.539-1.967-0.49-0.566 0.051-1.127 0.299-1.684 0.745v0c-0.724 0.579-1.157 1.211-1.3 1.897-0.139 0.691 0.029 1.334 0.504 1.928z"
                                                            fill="#1e55b3" data-fill-palette-color="primary"></path>
                                                        <path
                                                            d="M247.018 89.601l0.903 2.224-0.279 0.158-3.632-6.415 0.278-0.158 1.463 1.954 8.8-4.983c0.894-0.506 1.548-0.907 1.962-1.204 0.409-0.293 0.722-0.593 0.939-0.899v0c0.289-0.409 0.422-0.886 0.396-1.432-0.019-0.548-0.185-1.098-0.497-1.649v0c-0.664-1.172-1.75-1.94-3.259-2.305v0l-11.663 6.605 0.923 2.259-0.279 0.158-3.652-6.45 0.278-0.157 1.463 1.953 11.898-6.738-0.396-2.465 0.244-0.138 3.557 3.135 0.153 0.27-2.176 1.232c2.401 0.587 4.057 1.684 4.967 3.291v0c0.404 0.714 0.616 1.452 0.635 2.216 0.024 0.76-0.147 1.413-0.513 1.957v0c-0.207 0.324-0.556 0.656-1.046 0.995-0.49 0.339-1.379 0.873-2.668 1.603v0z"
                                                            fill="#1e55b3" data-fill-palette-color="primary"></path>
                                                        <path
                                                            d="M257.434 106.413l0.576 0.169-0.022 0.169-0.465 0.013c-1.499-0.009-2.789-0.366-3.872-1.072-1.085-0.712-1.882-1.749-2.392-3.11v0c-0.498-1.33-0.595-2.647-0.292-3.949 0.305-1.296 0.968-2.466 1.988-3.51 1.017-1.05 2.331-1.876 3.942-2.478v0c1.611-0.603 3.165-0.828 4.66-0.676 1.493 0.146 2.799 0.658 3.918 1.536 1.119 0.877 1.951 2.047 2.497 3.508v0c0.647 1.73 0.63 3.253-0.052 4.57-0.679 1.308-1.991 2.339-3.937 3.095v0l-0.268-0.145-3.75-10.024c-0.662 0.191-1.18 0.356-1.555 0.496v0c-2.248 0.841-3.789 1.937-4.622 3.288-0.837 1.36-0.949 2.858-0.337 4.494v0c0.313 0.837 0.809 1.573 1.488 2.21 0.673 0.638 1.505 1.11 2.495 1.416zM267.406 96.755c-0.435-1.162-1.28-1.946-2.535-2.351-1.249-0.408-2.745-0.411-4.489-0.009v0l2.954 7.097c0.328-0.037 0.838-0.185 1.532-0.444v0c1.337-0.5 2.182-1.105 2.536-1.814 0.354-0.709 0.355-1.535 0.002-2.479z"
                                                            fill="#1e55b3" data-fill-palette-color="primary"></path>
                                                        <path
                                                            d="M4.201 142.401c0-6.029 4.888-10.917 10.917-10.917 6.029 0 10.917 4.888 10.917 10.917 0 6.029-4.888 10.917-10.917 10.917-6.029 0-10.917-4.888-10.917-10.917z"
                                                            fill="#1e55b3" data-fill-palette-color="primary"></path>
                                                        <path
                                                            d="M256.025 142.401c0-6.029 4.888-10.917 10.916-10.917 6.029 0 10.917 4.888 10.917 10.917 0 6.029-4.888 10.917-10.917 10.917-6.029 0-10.917-4.888-10.916-10.917z"
                                                            fill="#1e55b3" data-fill-palette-color="primary"></path>
                                                    </g>
                                                    <g id="text-1">
                                                        <path
                                                            d="M16.907 199.301l6.039-5.164-4.18-11.22-7.932 0.084-1.355-3.637 30.59 0.249 1.152 3.093-22.963 20.223zM36.286 182.784l-14.216 0.119 3.391 9.102z"
                                                            fill="#ff585f" data-fill-palette-color="secondary"></path>
                                                        <path
                                                            d="M31.505 204.699v0c2.794-1.783 5.426-2.554 7.899-2.313 2.472 0.241 4.386 1.424 5.743 3.549v0c1.396 2.187 1.715 4.384 0.957 6.593v0l2.073-1.122 1.787 2.799-17.47 11.153c-2.316 1.478-4.578 1.957-6.785 1.436-2.217-0.523-4.064-1.943-5.543-4.259v0c-0.822-1.287-1.352-2.725-1.59-4.313-0.239-1.588-0.085-3.015 0.459-4.281v0l2.855 0.42c-0.788 2.347-0.576 4.47 0.637 6.37v0c0.951 1.49 2.113 2.381 3.488 2.675 1.369 0.297 2.812-0.039 4.329-1.007v0l1.543-0.985c-2.193-0.325-3.966-1.547-5.319-3.666v0c-1.338-2.097-1.577-4.329-0.716-6.699 0.857-2.375 2.742-4.492 5.653-6.35zM33.124 207.997v0c-2.018 1.288-3.337 2.716-3.958 4.283-0.625 1.562-0.462 3.088 0.489 4.577v0c1.231 1.928 3.012 2.785 5.343 2.571v0l8.17-5.216c1.109-2.03 1.067-3.98-0.128-5.852v0c-0.951-1.49-2.274-2.286-3.971-2.39-1.693-0.098-3.674 0.577-5.945 2.027z"
                                                            fill="#ff585f" data-fill-palette-color="secondary"></path>
                                                        <path
                                                            d="M54.898 219.615l2.4 2.453-1.826 1.953c2.592-0.269 4.804 0.534 6.637 2.408v0c3.138 3.208 2.912 6.596-0.678 10.164v0l-10.032 9.814-2.539-2.596 10.046-9.828c1.087-1.082 1.65-2.123 1.69-3.122 0.044-1.004-0.442-2.026-1.459-3.064v0c-0.825-0.844-1.772-1.363-2.84-1.56-1.073-0.2-2.147-0.12-3.221 0.241v0l-10.819 10.583-2.539-2.596z"
                                                            fill="#ff585f" data-fill-palette-color="secondary"></path>
                                                        <path
                                                            d="M67.974 258.629v0c-2.405-1.585-3.843-3.663-4.314-6.234-0.467-2.576 0.172-5.186 1.915-7.83v0l0.363-0.552c1.16-1.759 2.533-3.11 4.121-4.052 1.584-0.937 3.237-1.397 4.959-1.38 1.716 0.013 3.282 0.486 4.696 1.418v0c2.305 1.519 3.596 3.456 3.873 5.811 0.279 2.364-0.514 4.96-2.378 7.789v0l-0.832 1.261-12.018-7.921c-1.108 1.778-1.528 3.53-1.26 5.255 0.272 1.72 1.159 3.076 2.663 4.067v0c1.075 0.708 2.127 1.087 3.157 1.135 1.032 0.057 2.065-0.092 3.1-0.449v0l0.893 2.661c-2.991 1.303-5.971 0.976-8.938-0.979zM78.074 242.488v0c-1.225-0.807-2.546-1.039-3.963-0.695-1.417 0.344-2.754 1.252-4.011 2.723v0l8.886 5.857 0.149-0.226c0.927-1.601 1.3-3.069 1.117-4.403-0.188-1.338-0.914-2.424-2.178-3.256zM82.942 231.92l0.006 6.916-2.606-1.718-1.058-7.609z"
                                                            fill="#ff585f" data-fill-palette-color="secondary"></path>
                                                        <path
                                                            d="M98.006 266.69v0c0.369-0.908 0.314-1.755-0.165-2.541-0.482-0.779-1.501-1.698-3.058-2.756-1.55-1.056-2.723-2.04-3.517-2.953-0.792-0.92-1.283-1.829-1.472-2.726-0.198-0.894-0.099-1.826 0.295-2.796v0c0.656-1.612 1.894-2.7 3.714-3.262 1.817-0.556 3.785-0.404 5.904 0.458v0c2.23 0.907 3.806 2.218 4.728 3.932 0.916 1.712 1.009 3.466 0.278 5.264v0l-3.382-1.376c0.374-0.92 0.308-1.872-0.199-2.856-0.513-0.986-1.363-1.721-2.549-2.203v0c-1.223-0.498-2.289-0.621-3.196-0.372-0.91 0.256-1.54 0.813-1.89 1.672v0c-0.329 0.809-0.257 1.551 0.218 2.227 0.474 0.675 1.474 1.543 3.001 2.603 1.529 1.054 2.706 2.055 3.53 3.002 0.833 0.944 1.35 1.885 1.551 2.823 0.207 0.941 0.098 1.937-0.329 2.987v0c-0.716 1.76-1.995 2.885-3.836 3.375-1.832 0.486-3.869 0.273-6.111-0.64v0c-1.575-0.641-2.858-1.487-3.848-2.537-0.985-1.048-1.616-2.212-1.895-3.493-0.279-1.28-0.182-2.5 0.291-3.661v0l3.363 1.368c-0.396 1.149-0.305 2.227 0.273 3.232 0.571 1.003 1.549 1.786 2.932 2.349v0c1.272 0.518 2.396 0.676 3.371 0.475 0.983-0.205 1.649-0.736 1.998-1.595z"
                                                            fill="#ff585f" data-fill-palette-color="secondary"></path>
                                                        <path
                                                            d="M124.58 270.81v0c0.075-1.372 0.527-2.613 1.356-3.723 0.829-1.11 2.363-2.369 4.604-3.775v0c-1.187-1.614-1.972-2.903-2.353-3.865-0.375-0.962-0.537-1.909-0.486-2.842v0c0.118-2.164 0.85-3.827 2.196-4.989 1.345-1.155 3.117-1.673 5.314-1.553v0c1.958 0.107 3.548 0.765 4.771 1.974 1.216 1.215 1.776 2.692 1.681 4.43v0c-0.063 1.152-0.411 2.198-1.043 3.138-0.639 0.94-1.714 1.907-3.224 2.9v0l-2.182 1.433 5.938 7.928c0.985-1.649 1.534-3.512 1.648-5.59v0l3.266 0.179c-0.182 3.336-1.136 6.055-2.86 8.158v0l3.808 5.107-4.345-0.238-1.784-2.361c-1.013 0.813-2.181 1.41-3.504 1.792-1.323 0.375-2.66 0.526-4.012 0.452v0c-2.783-0.152-4.977-1.01-6.581-2.574-1.604-1.57-2.34-3.564-2.208-5.981zM133.531 276.408v0c1.924 0.105 3.722-0.531 5.393-1.909v0l-6.496-8.71-0.675 0.434c-2.272 1.492-3.455 3.087-3.547 4.785v0c-0.084 1.538 0.348 2.801 1.296 3.788 0.948 0.98 2.291 1.518 4.029 1.612zM131.333 256.693v0c-0.068 1.252 0.615 2.862 2.05 4.831v0l2.406-1.502c0.92-0.584 1.559-1.15 1.916-1.698 0.357-0.548 0.558-1.228 0.602-2.041v0c0.048-0.872-0.239-1.619-0.859-2.241-0.621-0.615-1.427-0.95-2.419-1.003v0c-1.072-0.059-1.941 0.258-2.607 0.949-0.666 0.692-1.029 1.593-1.089 2.705z"
                                                            fill="#ff585f" data-fill-palette-color="secondary"></path>
                                                        <path
                                                            d="M178.68 262.353l-6.474 1.845 3.064 10.755-3.617 1.03-7.831-27.484 10.13-2.886c3.008-0.857 5.583-0.762 7.726 0.285 2.144 1.053 3.577 2.843 4.296 5.37v0c0.76 2.668 0.512 4.961-0.744 6.879-1.256 1.918-3.44 3.32-6.55 4.206zM168.289 250.451l3.07 10.774 6.512-1.855c1.943-0.554 3.298-1.432 4.065-2.635 0.773-1.205 0.914-2.67 0.423-4.395v0c-0.466-1.635-1.355-2.797-2.668-3.484-1.306-0.689-2.865-0.796-4.678-0.321v0z"
                                                            fill="#ff585f" data-fill-palette-color="secondary"></path>
                                                        <path
                                                            d="M215.607 257.696l-3.35 1.818c-0.382-0.271-0.888-0.846-1.517-1.726v0c-0.646 2.346-1.997 4.078-4.054 5.195v0c-1.84 0.999-3.631 1.3-5.372 0.902-1.744-0.404-3.051-1.405-3.92-3.005v0c-1.053-1.94-1.134-3.85-0.243-5.73 0.895-1.874 2.681-3.539 5.359-4.992v0l3.112-1.69-0.797-1.468c-0.605-1.113-1.421-1.82-2.448-2.12-1.028-0.299-2.192-0.096-3.493 0.611v0c-1.137 0.617-1.936 1.423-2.398 2.417-0.456 0.991-0.461 1.897-0.016 2.718v0l-3.208 1.742c-0.506-0.932-0.665-2.014-0.477-3.247 0.191-1.227 0.716-2.399 1.573-3.517 0.857-1.118 1.966-2.046 3.326-2.785v0c2.151-1.168 4.127-1.546 5.928-1.136 1.804 0.416 3.241 1.553 4.309 3.408v0l4.668 8.598c0.929 1.711 1.886 2.956 2.87 3.734v0zM205.643 259.952v0c1.002-0.544 1.812-1.317 2.429-2.32 0.617-1.003 0.901-2.03 0.853-3.081v0l-2.076-3.824-2.505 1.36c-3.909 2.122-5.243 4.326-4.002 6.612v0c0.544 1.002 1.303 1.603 2.276 1.803 0.974 0.2 1.982 0.017 3.025-0.55z"
                                                            fill="#ff585f" data-fill-palette-color="secondary"></path>
                                                        <path
                                                            d="M230.328 238.736v0c-0.632-0.75-1.407-1.095-2.325-1.036-0.914 0.064-2.202 0.539-3.862 1.424-1.656 0.881-3.073 1.461-4.252 1.739-1.183 0.273-2.215 0.284-3.098 0.034-0.883-0.241-1.662-0.762-2.337-1.562v0c-1.122-1.331-1.508-2.932-1.159-4.805 0.353-1.868 1.404-3.539 3.153-5.013v0c1.841-1.552 3.734-2.337 5.681-2.355 1.942-0.014 3.538 0.72 4.788 2.204v0l-2.792 2.353c-0.64-0.76-1.514-1.144-2.62-1.153-1.112-0.005-2.157 0.405-3.136 1.23v0c-1.01 0.851-1.615 1.736-1.816 2.657-0.197 0.925 0.003 1.742 0.6 2.45v0c0.563 0.668 1.254 0.949 2.072 0.844 0.818-0.105 2.052-0.587 3.701-1.445 1.645-0.863 3.078-1.439 4.3-1.728 1.223-0.298 2.296-0.318 3.22-0.059 0.93 0.254 1.76 0.815 2.491 1.681v0c1.225 1.453 1.626 3.108 1.202 4.965-0.422 1.848-1.559 3.551-3.409 5.112v0c-1.3 1.096-2.646 1.838-4.038 2.226-1.386 0.384-2.71 0.401-3.972 0.052-1.262-0.349-2.297-1.003-3.106-1.961v0l2.777-2.341c0.833 0.885 1.829 1.306 2.987 1.263 1.153-0.039 2.301-0.54 3.443-1.503v0c1.05-0.885 1.713-1.806 1.989-2.762 0.276-0.966 0.116-1.803-0.482-2.511z"
                                                            fill="#ff585f" data-fill-palette-color="secondary"></path>
                                                        <path
                                                            d="M247.252 224.309v0c0.807-1.02 1.202-2.153 1.185-3.4-0.017-1.247-0.452-2.276-1.306-3.088v0l2.129-2.69c0.91 0.806 1.557 1.853 1.939 3.143 0.387 1.284 0.435 2.636 0.145 4.056-0.286 1.415-0.876 2.687-1.77 3.816v0c-1.792 2.264-3.973 3.467-6.544 3.61-2.576 0.138-5.176-0.831-7.801-2.908v0l-0.479-0.379c-1.621-1.283-2.828-2.719-3.62-4.307-0.794-1.598-1.097-3.229-0.912-4.893 0.186-1.664 0.879-3.254 2.08-4.771v0c1.477-1.867 3.266-2.977 5.366-3.33 2.09-0.353 4.063 0.137 5.917 1.469v0l-2.129 2.69c-1.143-0.769-2.353-1.063-3.627-0.881-1.274 0.191-2.337 0.825-3.19 1.902v0c-1.142 1.443-1.508 2.974-1.096 4.593 0.412 1.618 1.603 3.208 3.574 4.768v0l0.542 0.428c1.919 1.519 3.709 2.293 5.368 2.323 1.66 0.03 3.07-0.687 4.229-2.151z"
                                                            fill="#ff585f" data-fill-palette-color="secondary"></path>
                                                        <path
                                                            d="M267.322 195.394l-1.733 3.394c-0.468-0.007-1.211-0.195-2.228-0.564v0c0.795 2.3 0.66 4.492-0.404 6.577v0c-0.952 1.865-2.258 3.126-3.919 3.783-1.667 0.654-3.311 0.567-4.932-0.26v0c-1.966-1.004-3.113-2.533-3.442-4.588-0.323-2.052 0.209-4.435 1.594-7.149v0l1.61-3.153-1.488-0.76c-1.128-0.576-2.201-0.697-3.218-0.362-1.017 0.334-1.862 1.161-2.534 2.479v0c-0.588 1.152-0.791 2.269-0.61 3.35 0.185 1.075 0.693 1.825 1.525 2.25v0l-1.66 3.252c-0.944-0.482-1.688-1.285-2.231-2.408-0.536-1.12-0.767-2.383-0.693-3.79 0.074-1.407 0.463-2.8 1.167-4.178v0c1.113-2.18 2.528-3.61 4.246-4.29 1.724-0.677 3.551-0.553 5.481 0.372v0l8.713 4.448c1.734 0.885 3.227 1.371 4.479 1.456v0zM260.383 202.891v0c0.518-1.016 0.748-2.111 0.69-3.286-0.059-1.176-0.405-2.183-1.04-3.024v0l-3.875-1.979-1.296 2.54c-2.022 3.962-1.875 6.534 0.441 7.716v0c1.016 0.518 1.981 0.585 2.897 0.198 0.916-0.386 1.644-1.108 2.183-2.165z"
                                                            fill="#ff585f" data-fill-palette-color="secondary"></path>
                                                        <path
                                                            d="M243.492 172.154l28.604 9.528-1.148 3.445-28.603-9.528z"
                                                            fill="#ff585f" data-fill-palette-color="secondary"></path>
                                                    </g>
                                                </svg></g>
                                        </svg></g>
                                </svg></g>
                            <g></g>
                        </svg></g>
                    <defs></defs>
                </svg>
                <rect width="279.72" height="279.72" fill="none" stroke="none" visibility="hidden"></rect>
            </g>
        </svg></g>
</svg>