<svg viewBox="0 0 24 24" xmlns="http://www.w3.org/2000/svg" fill="currentColor" class="w-5 h-5">
    <path
        d="M22.32 11.85H6.3v-9A1.78 1.78 0 017 1.21a1.69 1.69 0 011.7.23 5.22 5.22 0 01.73.56c-.71.81-1 2.15-.8 4a.49.49 0 00.28.41.53.53 0 00.5 0l5.08-3.52a.5.5 0 00.22-.43.52.52 0 00-.25-.46c-.11-.06-2.49-1.41-4.23-.62a6.65 6.65 0 00-1-.77 2.63 2.63 0 00-2.7-.27 2.73 2.73 0 00-1.21 2.51v8.9a.3.3 0 000 .1H1.68a.51.51 0 00-.5.5v3a.5.5 0 00.5.5h.82v2.65A4.43 4.43 0 004 21.76l-1.37 1.32a.51.51 0 000 .71.5.5 0 00.35.15.51.51 0 00.36-.15l1.44-1.44a4.39 4.39 0 002.16.59h10.12a4.42 4.42 0 002.2-.61l1.46 1.46a.5.5 0 00.35.15.51.51 0 00.36-.15.51.51 0 000-.71l-1.35-1.35a4.39 4.39 0 001.42-3.23v-2.63h.82a.5.5 0 00.5-.5v-3a.5.5 0 00-.5-.52zM10.47 2.36a1.82 1.82 0 011-.26 5 5 0 011.74.39L9.57 5c-.01-1.06.18-2.18.9-2.64zm10 16.14a3.45 3.45 0 01-3.44 3.44H6.94A3.45 3.45 0 013.5 18.5v-2.56h17zm1.32-3.63H2.18v-2h19.64z"
       fill="rgba(0,123,255,0.674)" />
</svg>